ISO-10303-21;
HEADER;
FILE_NAME('Open CASCADE Shape Model','2026-10-01T07:52:37',('Author'),(
    'Open CASCADE'),'Open CASCADE STEP processor 7.8','Open CASCADE 7.8'
  ,'Unknown');
FILE_DESCRIPTION(('Open CASCADE Model'),'2;1');
FILE_SCHEMA(('AUTOMOTIVE_DESIGN { 1 0 10303 214 1 1 1 1 }'));
ENDSEC;
DATA;
#1 = APPLICATION_PROTOCOL_DEFINITION('international standard',
  'automotive_design',2000,#2);
#2 = APPLICATION_CONTEXT(
  'core data for automotive mechanical design processes');
#3 = SHAPE_DEFINITION_REPRESENTATION(#4,#10);
#4 = PRODUCT_DEFINITION_SHAPE('','',#5);
#5 = PRODUCT_DEFINITION('design','',#6,#9);
#6 = PRODUCT_DEFINITION_FORMATION('','',#7);
#7 = PRODUCT('Open CASCADE STEP translator 7.8 1',
  'Open CASCADE STEP translator 7.8 1','',(#8));
#8 = PRODUCT_CONTEXT('',#2,'mechanical');
#9 = PRODUCT_DEFINITION_CONTEXT('part definition',#2,'design');
#10 = SHAPE_REPRESENTATION('',(#11,#15,#19,#23,#27),#31);
#11 = AXIS2_PLACEMENT_3D('',#12,#13,#14);
#12 = CARTESIAN_POINT('',(0.,0.,0.));
#13 = DIRECTION('',(0.,0.,1.));
#14 = DIRECTION('',(1.,0.,-0.));
#15 = AXIS2_PLACEMENT_3D('',#16,#17,#18);
#16 = CARTESIAN_POINT('',(0.,0.,0.));
#17 = DIRECTION('',(0.,0.,1.));
#18 = DIRECTION('',(1.,0.,-0.));
#19 = AXIS2_PLACEMENT_3D('',#20,#21,#22);
#20 = CARTESIAN_POINT('',(0.,0.,0.));
#21 = DIRECTION('',(0.,0.,1.));
#22 = DIRECTION('',(1.,0.,-0.));
#23 = AXIS2_PLACEMENT_3D('',#24,#25,#26);
#24 = CARTESIAN_POINT('',(0.,0.,0.));
#25 = DIRECTION('',(0.,0.,1.));
#26 = DIRECTION('',(1.,0.,-0.));
#27 = AXIS2_PLACEMENT_3D('',#28,#29,#30);
#28 = CARTESIAN_POINT('',(0.,0.,0.));
#29 = DIRECTION('',(0.,0.,1.));
#30 = DIRECTION('',(1.,0.,-0.));
#31 = ( GEOMETRIC_REPRESENTATION_CONTEXT(3) 
GLOBAL_UNCERTAINTY_ASSIGNED_CONTEXT((#35)) GLOBAL_UNIT_ASSIGNED_CONTEXT(
(#32,#33,#34)) REPRESENTATION_CONTEXT('Context #1',
  '3D Context with UNIT and UNCERTAINTY') );
#32 = ( LENGTH_UNIT() NAMED_UNIT(*) SI_UNIT(.MILLI.,.METRE.) );
#33 = ( NAMED_UNIT(*) PLANE_ANGLE_UNIT() SI_UNIT($,.RADIAN.) );
#34 = ( NAMED_UNIT(*) SI_UNIT($,.STERADIAN.) SOLID_ANGLE_UNIT() );
#35 = UNCERTAINTY_MEASURE_WITH_UNIT(LENGTH_MEASURE(1.E-07),#32,
  'distance_accuracy_value','confusion accuracy');
#36 = PRODUCT_RELATED_PRODUCT_CATEGORY('part',$,(#7));
#37 = SHAPE_DEFINITION_REPRESENTATION(#38,#44);
#38 = PRODUCT_DEFINITION_SHAPE('','',#39);
#39 = PRODUCT_DEFINITION('design','',#40,#43);
#40 = PRODUCT_DEFINITION_FORMATION('','',#41);
#41 = PRODUCT('Open CASCADE STEP translator 7.8 1.1',
  'Open CASCADE STEP translator 7.8 1.1','',(#42));
#42 = PRODUCT_CONTEXT('',#2,'mechanical');
#43 = PRODUCT_DEFINITION_CONTEXT('part definition',#2,'design');
#44 = ADVANCED_BREP_SHAPE_REPRESENTATION('',(#11,#45),#913);
#45 = BREP_WITH_VOIDS('',#46,(#738));
#46 = CLOSED_SHELL('',(#47,#623,#678,#734));
#47 = ADVANCED_FACE('',(#48),#318,.T.);
#48 = FACE_BOUND('',#49,.T.);
#49 = EDGE_LOOP('',(#50,#595,#622));
#50 = ORIENTED_EDGE('',*,*,#51,.T.);
#51 = EDGE_CURVE('',#52,#54,#56,.T.);
#52 = VERTEX_POINT('',#53);
#53 = CARTESIAN_POINT('',(-5.E-02,0.,0.));
#54 = VERTEX_POINT('',#55);
#55 = CARTESIAN_POINT('',(0.26149477,0.4575,0.));
#56 = SEAM_CURVE('',#57,(#317,#588),.PCURVE_S1.);
#57 = B_SPLINE_CURVE_WITH_KNOTS('',3,(#58,#59,#60,#61,#62,#63,#64,#65,
    #66,#67,#68,#69,#70,#71,#72,#73,#74,#75,#76,#77,#78,#79,#80,#81,#82,
    #83,#84,#85,#86,#87,#88,#89,#90,#91,#92,#93,#94,#95,#96,#97,#98,#99,
    #100,#101,#102,#103,#104,#105,#106,#107,#108,#109,#110,#111,#112,
    #113,#114,#115,#116,#117,#118,#119,#120,#121,#122,#123,#124,#125,
    #126,#127,#128,#129,#130,#131,#132,#133,#134,#135,#136,#137,#138,
    #139,#140,#141,#142,#143,#144,#145,#146,#147,#148,#149,#150,#151,
    #152,#153,#154,#155,#156,#157,#158,#159,#160,#161,#162,#163,#164,
    #165,#166,#167,#168,#169,#170,#171,#172,#173,#174,#175,#176,#177,
    #178,#179,#180,#181,#182,#183,#184,#185,#186,#187,#188,#189,#190,
    #191,#192,#193,#194,#195,#196,#197,#198,#199,#200,#201,#202,#203,
    #204,#205,#206,#207,#208,#209,#210,#211,#212,#213,#214,#215,#216,
    #217,#218,#219,#220,#221,#222,#223,#224,#225,#226,#227,#228,#229,
    #230,#231,#232,#233,#234,#235,#236,#237,#238,#239,#240,#241,#242,
    #243,#244,#245,#246,#247,#248,#249,#250,#251,#252,#253,#254,#255,
    #256,#257,#258,#259,#260,#261,#262,#263,#264,#265,#266,#267,#268,
    #269,#270,#271,#272,#273,#274,#275,#276,#277,#278,#279,#280,#281,
    #282,#283,#284,#285,#286,#287,#288,#289,#290,#291,#292,#293,#294,
    #295,#296,#297,#298,#299,#300,#301,#302,#303,#304,#305,#306,#307,
    #308,#309,#310,#311,#312,#313,#314,#315,#316),.UNSPECIFIED.,.F.,.F.,
  (4,1,1,1,1,1,1,1,1,1,1,1,1,1,1,1,1,1,1,1,1,1,1,1,1,1,1,1,1,1,1,1,1,1,1
    ,1,1,1,1,1,1,1,1,1,1,1,1,1,1,1,1,1,1,1,1,1,1,1,1,1,1,1,1,1,1,1,1,1,1
    ,1,1,1,1,1,1,1,1,1,1,1,1,1,1,1,1,1,1,1,1,1,1,1,1,1,1,1,1,1,1,1,1,1,1
    ,1,1,1,1,1,1,1,1,1,1,1,1,1,1,1,1,1,1,1,1,1,1,1,1,1,1,1,1,1,1,1,1,1,1
    ,1,1,1,1,1,1,1,1,1,1,1,1,1,1,1,1,1,1,1,1,1,1,1,1,1,1,1,1,1,1,1,1,1,1
    ,1,1,1,1,1,1,1,1,1,1,1,1,1,1,1,1,1,1,1,1,1,1,1,1,1,1,1,1,1,1,1,1,1,1
    ,1,1,1,1,1,1,1,1,1,1,1,1,1,1,1,1,1,1,1,1,1,1,1,1,1,1,1,1,1,1,1,1,1,1
    ,1,1,1,1,1,1,1,1,1,1,1,1,1,1,1,1,1,4),(0.,1.934314503269E-03,
    3.881355448395E-03,5.841307180072E-03,7.814322977157E-03,
    9.800527162474E-03,1.180001717316E-02,1.381286558536E-02,
    1.583912208787E-02,1.787881539975E-02,1.993195512783E-02,
    2.199853356035E-02,2.407852739345E-02,2.617189938789E-02,
    2.827859995347E-02,3.039856865934E-02,3.253173566837E-02,
    3.467802309453E-02,3.6837346282E-02,3.900961500561E-02,
    4.119473459207E-02,4.339260696199E-02,4.560313159288E-02,
    4.782620640355E-02,5.006172856093E-02,5.230959521003E-02,
    5.456970412867E-02,5.684195430845E-02,5.912624646376E-02,
    6.142248347105E-02,6.37305707406E-02,6.605041652332E-02,
    6.838193215537E-02,7.07250322434E-02,7.307963479359E-02,
    7.544566128749E-02,7.782303670817E-02,8.02116895198E-02,
    8.261155160421E-02,8.502255815787E-02,8.744464755263E-02,
    8.987776116379E-02,9.232184316875E-02,9.477684031963E-02,
    9.724270169311E-02,9.971937842059E-02,0.102206823402,0.104704991004,
    0.107213836753,0.10973331701,0.112263388651,0.114804008732,
    0.117355134166,0.119916721387,0.122488726027,0.125071102591,
    0.127663804141,0.130266781982,0.132879985367,0.135503361195,
    0.138136853735,0.140780404352,0.143433951244,0.1460974292,
    0.148770769357,0.151453898984,0.154146741269,0.156849215125,
    0.159561235005,0.162282710735,0.16501354736,0.167753644995,
    0.170502898706,0.173261198385,0.17602842865,0.178804468755,
    0.18158919251,0.184382468214,0.187184158599,0.189994120787,
    0.192812206255,0.195638260815,0.198472124596,0.201313632043,
    0.204162611924,0.207018887343,0.209882275762,0.212752589036,
    0.215629633448,0.218513209757,0.221403113252,0.22429913381,
    0.227201055965,0.23010865898,0.233021716921,0.235939998747,
    0.238863268396,0.241791284875,0.244723802364,0.247660570315,
    0.250601333559,0.253545832417,0.256493802814,0.259444976394,
    0.262399080644,0.265355839017,0.268314971057,0.271276192528,
    0.274239215546,0.277203748715,0.280169497261,0.283136163168,
    0.286103445325,0.289071039661,0.292038639291,0.295005934663,
    0.297972613703,0.300938361963,0.303902862771,0.306865797382,
    0.30982684513,0.312785683579,0.315741988679,0.318695434921,
    0.32164569549,0.324592442428,0.327535346782,0.330474078771,
    0.33340830794,0.336337703323,0.339261933599,0.342180667257,
    0.345093572755,0.348000318684,0.350900573929,0.353794007832,
    0.356680290358,0.359559092257,0.362430085228,0.365292942087,
    0.36814733693,0.3709929453,0.373829444354,0.376656513027,
    0.379473832204,0.382281084882,0.385077956343,0.387864134321,
    0.390639309168,0.393403174027,0.396155425,0.398895761318,
    0.401623885511,0.404339503581,0.407042325169,0.409732063729,
    0.4124084367,0.415071165677,0.417719976584,0.420354599846,
    0.422974770562,0.425580228679,0.428170719164,0.430745992177,
    0.433305803249,0.435849913447,0.438378089559,0.440890104257,
    0.443385736276,0.44586477059,0.448326998579,0.450772218203,
    0.453200234181,0.455610858152,0.458003908857,0.4603792123,
    0.462736601924,0.465075918773,0.467397011663,0.469699737344,
    0.471983960666,0.474249554733,0.476496401068,0.478724389764,
    0.480933419635,0.483123398365,0.485294242651,0.48744587834,
    0.489578240565,0.491691273864,0.493784932309,0.495859179609,
    0.497913989217,0.49994934442,0.501965238424,0.503961674416,
    0.505938665629,0.507896235371,0.509834417056,0.511753254201,
    0.513652800412,0.51553311934,0.517394284614,0.51923637974,
    0.521059497976,0.522863742161,0.524649224511,0.526416066363,
    0.528164397879,0.529894357687,0.531606092462,0.533299756441,
    0.534975510859,0.536633523306,0.53827396698,0.539897019846,
    0.541502863675,0.543091682943,0.5446636636,0.546218991663,
    0.547757851634,0.549280424703,0.55078688673,0.55227740596,
    0.55375214044,0.555211235105,0.556654818476,0.558082998927,
    0.559495860443,0.560893457801,0.562275811075,0.563642899364,
    0.564994653588,0.566330948209,0.567651591647,0.568956315161,
    0.570244759853,0.571516461401,0.572770832009,0.574007138899,
    0.575224478505,0.576421745222,0.577597593248,0.578750389524,
    0.579878155097,0.580978491274,0.582048485519,0.583084590055,
    0.58408246318,0.5850367589,0.585940843811,0.586786409788,
    0.587562934675,0.588256916667,0.58885076405,0.589321146924,
    0.589636485535),.UNSPECIFIED.);
#58 = CARTESIAN_POINT('',(-5.E-02,0.,0.));
#59 = CARTESIAN_POINT('',(-5.000000189536E-02,6.447713603382E-04,0.));
#60 = CARTESIAN_POINT('',(-4.999947385967E-02,1.938556831723E-03,0.));
#61 = CARTESIAN_POINT('',(-4.999652804336E-02,3.885657406822E-03,0.));
#62 = CARTESIAN_POINT('',(-4.999081778678E-02,5.845652713803E-03,0.));
#63 = CARTESIAN_POINT('',(-4.998174416127E-02,7.818690173218E-03,0.));
#64 = CARTESIAN_POINT('',(-4.996870757508E-02,9.804885515016E-03,0.));
#65 = CARTESIAN_POINT('',(-4.995111174522E-02,1.180432416196E-02,0.));
#66 = CARTESIAN_POINT('',(-4.992836396536E-02,1.381706291331E-02,0.));
#67 = CARTESIAN_POINT('',(-4.98998763947E-02,1.584313152913E-02,0.));
#68 = CARTESIAN_POINT('',(-4.98650670738E-02,1.788253432032E-02,0.));
#69 = CARTESIAN_POINT('',(-4.98233610028E-02,1.993525171318E-02,0.));
#70 = CARTESIAN_POINT('',(-4.977419117806E-02,2.200124179425E-02,0.));
#71 = CARTESIAN_POINT('',(-4.971699960277E-02,2.408044183118E-02,0.));
#72 = CARTESIAN_POINT('',(-4.965123825613E-02,2.6172769768E-02,0.));
#73 = CARTESIAN_POINT('',(-4.957637001535E-02,2.827812569241E-02,0.));
#74 = CARTESIAN_POINT('',(-4.949186952314E-02,3.039639327269E-02,0.));
#75 = CARTESIAN_POINT('',(-4.939722399516E-02,3.25274411618E-02,0.));
#76 = CARTESIAN_POINT('',(-4.92919339626E-02,3.467112436603E-02,0.));
#77 = CARTESIAN_POINT('',(-4.917551394622E-02,3.682728557551E-02,0.));
#78 = CARTESIAN_POINT('',(-4.904749305881E-02,3.899575645396E-02,0.));
#79 = CARTESIAN_POINT('',(-4.890741553439E-02,4.117635888477E-02,0.));
#80 = CARTESIAN_POINT('',(-4.875484118284E-02,4.336890617092E-02,0.));
#81 = CARTESIAN_POINT('',(-4.858934577001E-02,4.557320418593E-02,0.));
#82 = CARTESIAN_POINT('',(-4.841052132362E-02,4.778905247344E-02,0.));
#83 = CARTESIAN_POINT('',(-4.82179763664E-02,5.001624529309E-02,0.));
#84 = CARTESIAN_POINT('',(-4.801133607834E-02,5.225457261051E-02,0.));
#85 = CARTESIAN_POINT('',(-4.77902423906E-02,5.450382102961E-02,0.));
#86 = CARTESIAN_POINT('',(-4.755435401402E-02,5.676377466567E-02,0.));
#87 = CARTESIAN_POINT('',(-4.730334640596E-02,5.903421595775E-02,0.));
#88 = CARTESIAN_POINT('',(-4.703691167905E-02,6.131492641982E-02,0.));
#89 = CARTESIAN_POINT('',(-4.675475845619E-02,6.360568732982E-02,0.));
#90 = CARTESIAN_POINT('',(-4.645661167618E-02,6.590628035657E-02,0.));
#91 = CARTESIAN_POINT('',(-4.614221235448E-02,6.821648812475E-02,0.));
#92 = CARTESIAN_POINT('',(-4.581131730379E-02,7.053609471845E-02,0.));
#93 = CARTESIAN_POINT('',(-4.546369881914E-02,7.286488612432E-02,0.));
#94 = CARTESIAN_POINT('',(-4.50991443321E-02,7.52026506155E-02,0.));
#95 = CARTESIAN_POINT('',(-4.471745603883E-02,7.7549179078E-02,0.));
#96 = CARTESIAN_POINT('',(-4.431845050625E-02,7.990426528137E-02,0.));
#97 = CARTESIAN_POINT('',(-4.39019582608E-02,8.226770609595E-02,0.));
#98 = CARTESIAN_POINT('',(-4.346782336379E-02,8.463930165896E-02,0.));
#99 = CARTESIAN_POINT('',(-4.301590297726E-02,8.701885549221E-02,0.));
#100 = CARTESIAN_POINT('',(-4.254606692403E-02,8.940617457409E-02,0.));
#101 = CARTESIAN_POINT('',(-4.205819724513E-02,9.180106936894E-02,0.));
#102 = CARTESIAN_POINT('',(-4.155218775795E-02,9.420335381665E-02,0.));
#103 = CARTESIAN_POINT('',(-4.102794361763E-02,9.661284528576E-02,0.));
#104 = CARTESIAN_POINT('',(-4.048538088447E-02,9.902936449315E-02,0.));
#105 = CARTESIAN_POINT('',(-3.992442609923E-02,0.101452735394,0.));
#106 = CARTESIAN_POINT('',(-3.934501586868E-02,0.103882785042,0.));
#107 = CARTESIAN_POINT('',(-3.874709646261E-02,0.106319343431,0.));
#108 = CARTESIAN_POINT('',(-3.813062342407E-02,0.10876224331,0.));
#109 = CARTESIAN_POINT('',(-3.749556119365E-02,0.111211319983,0.));
#110 = CARTESIAN_POINT('',(-3.6841882749E-02,0.113666411094,0.));
#111 = CARTESIAN_POINT('',(-3.616956925997E-02,0.116127356396,0.));
#112 = CARTESIAN_POINT('',(-3.547860976013E-02,0.118593997515,0.));
#113 = CARTESIAN_POINT('',(-3.476900083467E-02,0.121066177704,0.));
#114 = CARTESIAN_POINT('',(-3.404074632508E-02,0.123543741589,0.));
#115 = CARTESIAN_POINT('',(-3.329385705026E-02,0.126026534917,0.));
#116 = CARTESIAN_POINT('',(-3.252835054425E-02,0.128514404302,0.));
#117 = CARTESIAN_POINT('',(-3.17442508099E-02,0.131007196963,0.));
#118 = CARTESIAN_POINT('',(-3.094158808844E-02,0.133504760479,0.));
#119 = CARTESIAN_POINT('',(-3.012039864425E-02,0.136006942535,0.));
#120 = CARTESIAN_POINT('',(-2.928072456434E-02,0.138513590678,0.));
#121 = CARTESIAN_POINT('',(-2.8422613572E-02,0.141024552079,0.));
#122 = CARTESIAN_POINT('',(-2.75461188539E-02,0.143539673304,0.));
#123 = CARTESIAN_POINT('',(-2.665129889994E-02,0.146058800087,0.));
#124 = CARTESIAN_POINT('',(-2.573821735524E-02,0.148581777118,0.));
#125 = CARTESIAN_POINT('',(-2.480694288346E-02,0.151108447839,0.));
#126 = CARTESIAN_POINT('',(-2.385754904073E-02,0.153638654246,0.));
#127 = CARTESIAN_POINT('',(-2.289011415951E-02,0.156172236706,0.));
#128 = CARTESIAN_POINT('',(-2.190472124165E-02,0.158709033786,0.));
#129 = CARTESIAN_POINT('',(-2.090145785986E-02,0.161248882083,0.));
#130 = CARTESIAN_POINT('',(-1.988041606706E-02,0.163791616079,0.));
#131 = CARTESIAN_POINT('',(-1.884169231279E-02,0.166337067996,0.));
#132 = CARTESIAN_POINT('',(-1.778538736608E-02,0.168885067669,0.));
#133 = CARTESIAN_POINT('',(-1.671160624423E-02,0.171435442424,0.));
#134 = CARTESIAN_POINT('',(-1.562045814682E-02,0.173988016975,0.));
#135 = CARTESIAN_POINT('',(-1.451205639442E-02,0.176542613323,0.));
#136 = CARTESIAN_POINT('',(-1.338651837151E-02,0.179099050676,0.));
#137 = CARTESIAN_POINT('',(-1.2243965473E-02,0.181657145365,0.));
#138 = CARTESIAN_POINT('',(-1.108452305401E-02,0.184216710788,0.));
#139 = CARTESIAN_POINT('',(-9.908320382431E-03,0.186777557348,0.));
#140 = CARTESIAN_POINT('',(-8.715490593745E-03,0.18933949241,0.));
#141 = CARTESIAN_POINT('',(-7.506170647917E-03,0.191902320266,0.));
#142 = CARTESIAN_POINT('',(-6.28050128785E-03,0.194465842106,0.));
#143 = CARTESIAN_POINT('',(-5.038626999159E-03,0.197029856002,0.));
#144 = CARTESIAN_POINT('',(-3.780695970936E-03,0.199594156895,0.));
#145 = CARTESIAN_POINT('',(-2.506860057244E-03,0.202158536594,0.));
#146 = CARTESIAN_POINT('',(-1.217274739093E-03,0.204722783785,0.));
#147 = CARTESIAN_POINT('',(8.790091333708E-05,0.20728668404,0.));
#148 = CARTESIAN_POINT('',(1.408504278422E-03,0.209850019839,0.));
#149 = CARTESIAN_POINT('',(2.744369220953E-03,0.212412570599,0.));
#150 = CARTESIAN_POINT('',(4.095326130299E-03,0.214974112705,0.));
#151 = CARTESIAN_POINT('',(5.461201959018E-03,0.217534419548,0.));
#152 = CARTESIAN_POINT('',(6.841820262045E-03,0.220093261576,0.));
#153 = CARTESIAN_POINT('',(8.237001236578E-03,0.222650406339,0.));
#154 = CARTESIAN_POINT('',(9.646561762759E-03,0.225205618548,0.));
#155 = CARTESIAN_POINT('',(1.107031544524E-02,0.227758660137,0.));
#156 = CARTESIAN_POINT('',(1.250807265574E-02,0.230309290326,0.));
#157 = CARTESIAN_POINT('',(1.395964057657E-02,0.232857265689,0.));
#158 = CARTESIAN_POINT('',(1.542482324531E-02,0.235402340236,0.));
#159 = CARTESIAN_POINT('',(1.690342160061E-02,0.237944265483,0.));
#160 = CARTESIAN_POINT('',(1.839523352911E-02,0.240482790536,0.));
#161 = CARTESIAN_POINT('',(1.990005391366E-02,0.243017662179,0.));
#162 = CARTESIAN_POINT('',(2.14176746827E-02,0.245548624955,0.));
#163 = CARTESIAN_POINT('',(2.294788486091E-02,0.248075421268,0.));
#164 = CARTESIAN_POINT('',(2.449047062116E-02,0.250597791465,0.));
#165 = CARTESIAN_POINT('',(2.60452153377E-02,0.253115473943,0.));
#166 = CARTESIAN_POINT('',(2.761189964066E-02,0.255628205241,0.));
#167 = CARTESIAN_POINT('',(2.919030147184E-02,0.258135720144,0.));
#168 = CARTESIAN_POINT('',(3.078019614178E-02,0.260637751787,0.));
#169 = CARTESIAN_POINT('',(3.238135638809E-02,0.263134031761,0.));
#170 = CARTESIAN_POINT('',(3.399355243514E-02,0.265624290218,0.));
#171 = CARTESIAN_POINT('',(3.561655205495E-02,0.26810825598,0.));
#172 = CARTESIAN_POINT('',(3.725012062934E-02,0.270585656653,0.));
#173 = CARTESIAN_POINT('',(3.889402121343E-02,0.273056218736,0.));
#174 = CARTESIAN_POINT('',(4.054801460031E-02,0.275519667736,0.));
#175 = CARTESIAN_POINT('',(4.221185938694E-02,0.277975728279,0.));
#176 = CARTESIAN_POINT('',(4.388531204135E-02,0.280424124232,0.));
#177 = CARTESIAN_POINT('',(4.556812697096E-02,0.282864578816,0.));
#178 = CARTESIAN_POINT('',(4.726005659221E-02,0.285296814721,0.));
#179 = CARTESIAN_POINT('',(4.896085140129E-02,0.287720554232,0.));
#180 = CARTESIAN_POINT('',(5.067026004611E-02,0.290135519341,0.));
#181 = CARTESIAN_POINT('',(5.238802939944E-02,0.292541431872,0.));
#182 = CARTESIAN_POINT('',(5.411390463318E-02,0.294938013599,0.));
#183 = CARTESIAN_POINT('',(5.584762929381E-02,0.297324986368,0.));
#184 = CARTESIAN_POINT('',(5.7588945379E-02,0.29970207222,0.));
#185 = CARTESIAN_POINT('',(5.933759341536E-02,0.302068993513,0.));
#186 = CARTESIAN_POINT('',(6.109331253726E-02,0.304425473041,0.));
#187 = CARTESIAN_POINT('',(6.28558405669E-02,0.306771234163,0.));
#188 = CARTESIAN_POINT('',(6.462491409539E-02,0.309106000921,0.));
#189 = CARTESIAN_POINT('',(6.640026856501E-02,0.311429498167,0.));
#190 = CARTESIAN_POINT('',(6.818163835261E-02,0.313741451683,0.));
#191 = CARTESIAN_POINT('',(6.99687568541E-02,0.31604158831,0.));
#192 = CARTESIAN_POINT('',(7.176135657006E-02,0.318329636065,0.));
#193 = CARTESIAN_POINT('',(7.355916919247E-02,0.320605324271,0.));
#194 = CARTESIAN_POINT('',(7.536192569265E-02,0.322868383678,0.));
#195 = CARTESIAN_POINT('',(7.71693564102E-02,0.325118546586,0.));
#196 = CARTESIAN_POINT('',(7.898119114318E-02,0.327355546972,0.));
#197 = CARTESIAN_POINT('',(8.079715923944E-02,0.329579120607,0.));
#198 = CARTESIAN_POINT('',(8.261698968901E-02,0.331789005189,0.));
#199 = CARTESIAN_POINT('',(8.444041121779E-02,0.333984940458,0.));
#200 = CARTESIAN_POINT('',(8.626715238232E-02,0.33616666832,0.));
#201 = CARTESIAN_POINT('',(8.809694166577E-02,0.338333932976,0.));
#202 = CARTESIAN_POINT('',(8.992950757517E-02,0.340486481034,0.));
#203 = CARTESIAN_POINT('',(9.17645787398E-02,0.342624061642,0.));
#204 = CARTESIAN_POINT('',(9.360188401088E-02,0.344746426599,0.));
#205 = CARTESIAN_POINT('',(9.544115256244E-02,0.346853330483,0.));
#206 = CARTESIAN_POINT('',(9.728211399357E-02,0.348944530769,0.));
#207 = CARTESIAN_POINT('',(9.912449843185E-02,0.35101978795,0.));
#208 = CARTESIAN_POINT('',(0.100968036638,0.353078865651,0.));
#209 = CARTESIAN_POINT('',(0.102812460113,0.355121530757,0.));
#210 = CARTESIAN_POINT('',(0.104657501203,0.357147553521,0.));
#211 = CARTESIAN_POINT('',(0.106502893212,0.359156707688,0.));
#212 = CARTESIAN_POINT('',(0.108348370508,0.361148770608,0.));
#213 = CARTESIAN_POINT('',(0.110193668639,0.36312352335,0.));
#214 = CARTESIAN_POINT('',(0.112038524441,0.365080750819,0.));
#215 = CARTESIAN_POINT('',(0.113882676159,0.367020241868,0.));
#216 = CARTESIAN_POINT('',(0.115725863556,0.36894178941,0.));
#217 = CARTESIAN_POINT('',(0.117567828037,0.370845190527,0.));
#218 = CARTESIAN_POINT('',(0.119408312764,0.372730246582,0.));
#219 = CARTESIAN_POINT('',(0.121247062778,0.374596763326,0.));
#220 = CARTESIAN_POINT('',(0.123083825121,0.376444551003,0.));
#221 = CARTESIAN_POINT('',(0.124918348962,0.378273424457,0.));
#222 = CARTESIAN_POINT('',(0.126750385718,0.380083203233,0.));
#223 = CARTESIAN_POINT('',(0.128579689186,0.38187371168,0.));
#224 = CARTESIAN_POINT('',(0.130406015668,0.383644779049,0.));
#225 = CARTESIAN_POINT('',(0.132229124104,0.385396239591,0.));
#226 = CARTESIAN_POINT('',(0.134048776201,0.387127932649,0.));
#227 = CARTESIAN_POINT('',(0.13586473657,0.388839702754,0.));
#228 = CARTESIAN_POINT('',(0.137676772859,0.390531399712,0.));
#229 = CARTESIAN_POINT('',(0.139484655888,0.392202878694,0.));
#230 = CARTESIAN_POINT('',(0.141288159792,0.393854000314,0.));
#231 = CARTESIAN_POINT('',(0.143087062158,0.395484630717,0.));
#232 = CARTESIAN_POINT('',(0.144881144163,0.39709464165,0.));
#233 = CARTESIAN_POINT('',(0.146670190722,0.398683910539,0.));
#234 = CARTESIAN_POINT('',(0.148453990631,0.400252320557,0.));
#235 = CARTESIAN_POINT('',(0.150232336708,0.401799760694,0.));
#236 = CARTESIAN_POINT('',(0.152005025941,0.40332612581,0.));
#237 = CARTESIAN_POINT('',(0.153771859637,0.404831316698,0.));
#238 = CARTESIAN_POINT('',(0.155532643568,0.406315240134,0.));
#239 = CARTESIAN_POINT('',(0.157287188118,0.407777808922,0.));
#240 = CARTESIAN_POINT('',(0.159035308434,0.409218941934,0.));
#241 = CARTESIAN_POINT('',(0.16077682457,0.410638564145,0.));
#242 = CARTESIAN_POINT('',(0.162511561642,0.412036606661,0.));
#243 = CARTESIAN_POINT('',(0.164239349971,0.413413006738,0.));
#244 = CARTESIAN_POINT('',(0.165960025228,0.414767707799,0.));
#245 = CARTESIAN_POINT('',(0.167673428584,0.416100659435,0.));
#246 = CARTESIAN_POINT('',(0.169379406849,0.417411817407,0.));
#247 = CARTESIAN_POINT('',(0.171077812616,0.41870114363,0.));
#248 = CARTESIAN_POINT('',(0.172768504394,0.419968606159,0.));
#249 = CARTESIAN_POINT('',(0.174451346744,0.421214179151,0.));
#250 = CARTESIAN_POINT('',(0.176126210405,0.422437842828,0.));
#251 = CARTESIAN_POINT('',(0.177792972419,0.423639583429,0.));
#252 = CARTESIAN_POINT('',(0.179451516247,0.424819393137,0.));
#253 = CARTESIAN_POINT('',(0.181101731869,0.425977270015,0.));
#254 = CARTESIAN_POINT('',(0.182743515893,0.42711321791,0.));
#255 = CARTESIAN_POINT('',(0.184376771633,0.428227246353,0.));
#256 = CARTESIAN_POINT('',(0.186001409184,0.429319370447,0.));
#257 = CARTESIAN_POINT('',(0.187617345487,0.430389610732,0.));
#258 = CARTESIAN_POINT('',(0.189224504365,0.431437993044,0.));
#259 = CARTESIAN_POINT('',(0.190822816548,0.432464548352,0.));
#260 = CARTESIAN_POINT('',(0.192412219678,0.43346931258,0.));
#261 = CARTESIAN_POINT('',(0.19399265828,0.434452326415,0.));
#262 = CARTESIAN_POINT('',(0.195564083715,0.435413635093,0.));
#263 = CARTESIAN_POINT('',(0.197126454094,0.436353288174,0.));
#264 = CARTESIAN_POINT('',(0.198679734162,0.437271339291,0.));
#265 = CARTESIAN_POINT('',(0.200223895132,0.438167845888,0.));
#266 = CARTESIAN_POINT('',(0.201758914489,0.439042868937,0.));
#267 = CARTESIAN_POINT('',(0.203284775723,0.439896472638,0.));
#268 = CARTESIAN_POINT('',(0.204801468025,0.440728724101,0.));
#269 = CARTESIAN_POINT('',(0.206308985901,0.441539693014,0.));
#270 = CARTESIAN_POINT('',(0.207807328728,0.442329451291,0.));
#271 = CARTESIAN_POINT('',(0.209296500215,0.443098072712,0.));
#272 = CARTESIAN_POINT('',(0.210776507788,0.443845632545,0.));
#273 = CARTESIAN_POINT('',(0.212247361864,0.444572207162,0.));
#274 = CARTESIAN_POINT('',(0.213709075015,0.44527787365,0.));
#275 = CARTESIAN_POINT('',(0.215161661003,0.44596270941,0.));
#276 = CARTESIAN_POINT('',(0.216605133681,0.44662679177,0.));
#277 = CARTESIAN_POINT('',(0.218039505724,0.447270197596,0.));
#278 = CARTESIAN_POINT('',(0.219464787195,0.44789300292,0.));
#279 = CARTESIAN_POINT('',(0.220880983906,0.448495282584,0.));
#280 = CARTESIAN_POINT('',(0.222288095556,0.449077109923,0.));
#281 = CARTESIAN_POINT('',(0.223686113627,0.449638556485,0.));
#282 = CARTESIAN_POINT('',(0.225075018993,0.450179691796,0.));
#283 = CARTESIAN_POINT('',(0.226454779215,0.450700583209,0.));
#284 = CARTESIAN_POINT('',(0.227825345487,0.451201295823,0.));
#285 = CARTESIAN_POINT('',(0.229186649171,0.451681892513,0.));
#286 = CARTESIAN_POINT('',(0.230538597881,0.45214243409,0.));
#287 = CARTESIAN_POINT('',(0.231881071041,0.452582979603,0.));
#288 = CARTESIAN_POINT('',(0.233213914853,0.453003586835,0.));
#289 = CARTESIAN_POINT('',(0.234536936572,0.453404313005,0.));
#290 = CARTESIAN_POINT('',(0.235849897992,0.453785215737,0.));
#291 = CARTESIAN_POINT('',(0.237152507999,0.454146354315,0.));
#292 = CARTESIAN_POINT('',(0.238444414045,0.454487791303,0.));
#293 = CARTESIAN_POINT('',(0.239725192336,0.454809594569,0.));
#294 = CARTESIAN_POINT('',(0.240994336485,0.455111839784,0.));
#295 = CARTESIAN_POINT('',(0.24225124433,0.455394613487,0.));
#296 = CARTESIAN_POINT('',(0.243495202516,0.455658016784,0.));
#297 = CARTESIAN_POINT('',(0.244725368345,0.4559021698,0.));
#298 = CARTESIAN_POINT('',(0.245940748233,0.456127217005,0.));
#299 = CARTESIAN_POINT('',(0.247140171941,0.456333333536,0.));
#300 = CARTESIAN_POINT('',(0.248322261447,0.456520732696,0.));
#301 = CARTESIAN_POINT('',(0.249485392987,0.456689674796,0.));
#302 = CARTESIAN_POINT('',(0.250627650261,0.456840477567,0.));
#303 = CARTESIAN_POINT('',(0.251746766098,0.456973528374,0.));
#304 = CARTESIAN_POINT('',(0.252840048841,0.457089298497,0.));
#305 = CARTESIAN_POINT('',(0.253904288296,0.457188359751,0.));
#306 = CARTESIAN_POINT('',(0.254935633912,0.457271403686,0.));
#307 = CARTESIAN_POINT('',(0.255929434788,0.457339263547,0.));
#308 = CARTESIAN_POINT('',(0.256880026344,0.457392938733,0.));
#309 = CARTESIAN_POINT('',(0.257780441321,0.457433621675,0.));
#310 = CARTESIAN_POINT('',(0.2586220115,0.457462723182,0.));
#311 = CARTESIAN_POINT('',(0.259393808639,0.457481898984,0.));
#312 = CARTESIAN_POINT('',(0.260081843712,0.457493044821,0.));
#313 = CARTESIAN_POINT('',(0.260667895002,0.457498314056,0.));
#314 = CARTESIAN_POINT('',(0.261127749734,0.457499895809,0.));
#315 = CARTESIAN_POINT('',(0.261389657323,0.457500041127,-0.));
#316 = CARTESIAN_POINT('',(0.26149477,0.4575,0.));
#317 = PCURVE('',#318,#582);
#318 = SURFACE_OF_REVOLUTION('',#319,#579);
#319 = B_SPLINE_CURVE_WITH_KNOTS('',3,(#320,#321,#322,#323,#324,#325,
    #326,#327,#328,#329,#330,#331,#332,#333,#334,#335,#336,#337,#338,
    #339,#340,#341,#342,#343,#344,#345,#346,#347,#348,#349,#350,#351,
    #352,#353,#354,#355,#356,#357,#358,#359,#360,#361,#362,#363,#364,
    #365,#366,#367,#368,#369,#370,#371,#372,#373,#374,#375,#376,#377,
    #378,#379,#380,#381,#382,#383,#384,#385,#386,#387,#388,#389,#390,
    #391,#392,#393,#394,#395,#396,#397,#398,#399,#400,#401,#402,#403,
    #404,#405,#406,#407,#408,#409,#410,#411,#412,#413,#414,#415,#416,
    #417,#418,#419,#420,#421,#422,#423,#424,#425,#426,#427,#428,#429,
    #430,#431,#432,#433,#434,#435,#436,#437,#438,#439,#440,#441,#442,
    #443,#444,#445,#446,#447,#448,#449,#450,#451,#452,#453,#454,#455,
    #456,#457,#458,#459,#460,#461,#462,#463,#464,#465,#466,#467,#468,
    #469,#470,#471,#472,#473,#474,#475,#476,#477,#478,#479,#480,#481,
    #482,#483,#484,#485,#486,#487,#488,#489,#490,#491,#492,#493,#494,
    #495,#496,#497,#498,#499,#500,#501,#502,#503,#504,#505,#506,#507,
    #508,#509,#510,#511,#512,#513,#514,#515,#516,#517,#518,#519,#520,
    #521,#522,#523,#524,#525,#526,#527,#528,#529,#530,#531,#532,#533,
    #534,#535,#536,#537,#538,#539,#540,#541,#542,#543,#544,#545,#546,
    #547,#548,#549,#550,#551,#552,#553,#554,#555,#556,#557,#558,#559,
    #560,#561,#562,#563,#564,#565,#566,#567,#568,#569,#570,#571,#572,
    #573,#574,#575,#576,#577,#578),.UNSPECIFIED.,.F.,.F.,(4,1,1,1,1,1,1,
    1,1,1,1,1,1,1,1,1,1,1,1,1,1,1,1,1,1,1,1,1,1,1,1,1,1,1,1,1,1,1,1,1,1,
    1,1,1,1,1,1,1,1,1,1,1,1,1,1,1,1,1,1,1,1,1,1,1,1,1,1,1,1,1,1,1,1,1,1,
    1,1,1,1,1,1,1,1,1,1,1,1,1,1,1,1,1,1,1,1,1,1,1,1,1,1,1,1,1,1,1,1,1,1,
    1,1,1,1,1,1,1,1,1,1,1,1,1,1,1,1,1,1,1,1,1,1,1,1,1,1,1,1,1,1,1,1,1,1,
    1,1,1,1,1,1,1,1,1,1,1,1,1,1,1,1,1,1,1,1,1,1,1,1,1,1,1,1,1,1,1,1,1,1,
    1,1,1,1,1,1,1,1,1,1,1,1,1,1,1,1,1,1,1,1,1,1,1,1,1,1,1,1,1,1,1,1,1,1,
    1,1,1,1,1,1,1,1,1,1,1,1,1,1,1,1,1,1,1,1,1,1,1,1,1,1,1,1,1,1,1,1,1,1,
    1,1,1,1,1,1,1,1,1,1,1,4),(0.,1.934314503269E-03,3.881355448395E-03,
    5.841307180072E-03,7.814322977157E-03,9.800527162474E-03,
    1.180001717316E-02,1.381286558536E-02,1.583912208787E-02,
    1.787881539975E-02,1.993195512783E-02,2.199853356035E-02,
    2.407852739345E-02,2.617189938789E-02,2.827859995347E-02,
    3.039856865934E-02,3.253173566837E-02,3.467802309453E-02,
    3.6837346282E-02,3.900961500561E-02,4.119473459207E-02,
    4.339260696199E-02,4.560313159288E-02,4.782620640355E-02,
    5.006172856093E-02,5.230959521003E-02,5.456970412867E-02,
    5.684195430845E-02,5.912624646376E-02,6.142248347105E-02,
    6.37305707406E-02,6.605041652332E-02,6.838193215537E-02,
    7.07250322434E-02,7.307963479359E-02,7.544566128749E-02,
    7.782303670817E-02,8.02116895198E-02,8.261155160421E-02,
    8.502255815787E-02,8.744464755263E-02,8.987776116379E-02,
    9.232184316875E-02,9.477684031963E-02,9.724270169311E-02,
    9.971937842059E-02,0.102206823402,0.104704991004,0.107213836753,
    0.10973331701,0.112263388651,0.114804008732,0.117355134166,
    0.119916721387,0.122488726027,0.125071102591,0.127663804141,
    0.130266781982,0.132879985367,0.135503361195,0.138136853735,
    0.140780404352,0.143433951244,0.1460974292,0.148770769357,
    0.151453898984,0.154146741269,0.156849215125,0.159561235005,
    0.162282710735,0.16501354736,0.167753644995,0.170502898706,
    0.173261198385,0.17602842865,0.178804468755,0.18158919251,
    0.184382468214,0.187184158599,0.189994120787,0.192812206255,
    0.195638260815,0.198472124596,0.201313632043,0.204162611924,
    0.207018887343,0.209882275762,0.212752589036,0.215629633448,
    0.218513209757,0.221403113252,0.22429913381,0.227201055965,
    0.23010865898,0.233021716921,0.235939998747,0.238863268396,
    0.241791284875,0.244723802364,0.247660570315,0.250601333559,
    0.253545832417,0.256493802814,0.259444976394,0.262399080644,
    0.265355839017,0.268314971057,0.271276192528,0.274239215546,
    0.277203748715,0.280169497261,0.283136163168,0.286103445325,
    0.289071039661,0.292038639291,0.295005934663,0.297972613703,
    0.300938361963,0.303902862771,0.306865797382,0.30982684513,
    0.312785683579,0.315741988679,0.318695434921,0.32164569549,
    0.324592442428,0.327535346782,0.330474078771,0.33340830794,
    0.336337703323,0.339261933599,0.342180667257,0.345093572755,
    0.348000318684,0.350900573929,0.353794007832,0.356680290358,
    0.359559092257,0.362430085228,0.365292942087,0.36814733693,
    0.3709929453,0.373829444354,0.376656513027,0.379473832204,
    0.382281084882,0.385077956343,0.387864134321,0.390639309168,
    0.393403174027,0.396155425,0.398895761318,0.401623885511,
    0.404339503581,0.407042325169,0.409732063729,0.4124084367,
    0.415071165677,0.417719976584,0.420354599846,0.422974770562,
    0.425580228679,0.428170719164,0.430745992177,0.433305803249,
    0.435849913447,0.438378089559,0.440890104257,0.443385736276,
    0.44586477059,0.448326998579,0.450772218203,0.453200234181,
    0.455610858152,0.458003908857,0.4603792123,0.462736601924,
    0.465075918773,0.467397011663,0.469699737344,0.471983960666,
    0.474249554733,0.476496401068,0.478724389764,0.480933419635,
    0.483123398365,0.485294242651,0.48744587834,0.489578240565,
    0.491691273864,0.493784932309,0.495859179609,0.497913989217,
    0.49994934442,0.501965238424,0.503961674416,0.505938665629,
    0.507896235371,0.509834417056,0.511753254201,0.513652800412,
    0.51553311934,0.517394284614,0.51923637974,0.521059497976,
    0.522863742161,0.524649224511,0.526416066363,0.528164397879,
    0.529894357687,0.531606092462,0.533299756441,0.534975510859,
    0.536633523306,0.53827396698,0.539897019846,0.541502863675,
    0.543091682943,0.5446636636,0.546218991663,0.547757851634,
    0.549280424703,0.55078688673,0.55227740596,0.55375214044,
    0.555211235105,0.556654818476,0.558082998927,0.559495860443,
    0.560893457801,0.562275811075,0.563642899364,0.564994653588,
    0.566330948209,0.567651591647,0.568956315161,0.570244759853,
    0.571516461401,0.572770832009,0.574007138899,0.575224478505,
    0.576421745222,0.577597593248,0.578750389524,0.579878155097,
    0.580978491274,0.582048485519,0.583084590055,0.58408246318,
    0.5850367589,0.585940843811,0.586786409788,0.587562934675,
    0.588256916667,0.58885076405,0.589321146924,0.589636485535),
  .UNSPECIFIED.);
#320 = CARTESIAN_POINT('',(-5.E-02,0.,0.));
#321 = CARTESIAN_POINT('',(-5.000000189536E-02,6.447713603382E-04,0.));
#322 = CARTESIAN_POINT('',(-4.999947385967E-02,1.938556831723E-03,0.));
#323 = CARTESIAN_POINT('',(-4.999652804336E-02,3.885657406822E-03,0.));
#324 = CARTESIAN_POINT('',(-4.999081778678E-02,5.845652713803E-03,0.));
#325 = CARTESIAN_POINT('',(-4.998174416127E-02,7.818690173218E-03,0.));
#326 = CARTESIAN_POINT('',(-4.996870757508E-02,9.804885515016E-03,0.));
#327 = CARTESIAN_POINT('',(-4.995111174522E-02,1.180432416196E-02,0.));
#328 = CARTESIAN_POINT('',(-4.992836396536E-02,1.381706291331E-02,0.));
#329 = CARTESIAN_POINT('',(-4.98998763947E-02,1.584313152913E-02,0.));
#330 = CARTESIAN_POINT('',(-4.98650670738E-02,1.788253432032E-02,0.));
#331 = CARTESIAN_POINT('',(-4.98233610028E-02,1.993525171318E-02,0.));
#332 = CARTESIAN_POINT('',(-4.977419117806E-02,2.200124179425E-02,0.));
#333 = CARTESIAN_POINT('',(-4.971699960277E-02,2.408044183118E-02,0.));
#334 = CARTESIAN_POINT('',(-4.965123825613E-02,2.6172769768E-02,0.));
#335 = CARTESIAN_POINT('',(-4.957637001535E-02,2.827812569241E-02,0.));
#336 = CARTESIAN_POINT('',(-4.949186952314E-02,3.039639327269E-02,0.));
#337 = CARTESIAN_POINT('',(-4.939722399516E-02,3.25274411618E-02,0.));
#338 = CARTESIAN_POINT('',(-4.92919339626E-02,3.467112436603E-02,0.));
#339 = CARTESIAN_POINT('',(-4.917551394622E-02,3.682728557551E-02,0.));
#340 = CARTESIAN_POINT('',(-4.904749305881E-02,3.899575645396E-02,0.));
#341 = CARTESIAN_POINT('',(-4.890741553439E-02,4.117635888477E-02,0.));
#342 = CARTESIAN_POINT('',(-4.875484118284E-02,4.336890617092E-02,0.));
#343 = CARTESIAN_POINT('',(-4.858934577001E-02,4.557320418593E-02,0.));
#344 = CARTESIAN_POINT('',(-4.841052132362E-02,4.778905247344E-02,0.));
#345 = CARTESIAN_POINT('',(-4.82179763664E-02,5.001624529309E-02,0.));
#346 = CARTESIAN_POINT('',(-4.801133607834E-02,5.225457261051E-02,0.));
#347 = CARTESIAN_POINT('',(-4.77902423906E-02,5.450382102961E-02,0.));
#348 = CARTESIAN_POINT('',(-4.755435401402E-02,5.676377466567E-02,0.));
#349 = CARTESIAN_POINT('',(-4.730334640596E-02,5.903421595775E-02,0.));
#350 = CARTESIAN_POINT('',(-4.703691167905E-02,6.131492641982E-02,0.));
#351 = CARTESIAN_POINT('',(-4.675475845619E-02,6.360568732982E-02,0.));
#352 = CARTESIAN_POINT('',(-4.645661167618E-02,6.590628035657E-02,0.));
#353 = CARTESIAN_POINT('',(-4.614221235448E-02,6.821648812475E-02,0.));
#354 = CARTESIAN_POINT('',(-4.581131730379E-02,7.053609471845E-02,0.));
#355 = CARTESIAN_POINT('',(-4.546369881914E-02,7.286488612432E-02,0.));
#356 = CARTESIAN_POINT('',(-4.50991443321E-02,7.52026506155E-02,0.));
#357 = CARTESIAN_POINT('',(-4.471745603883E-02,7.7549179078E-02,0.));
#358 = CARTESIAN_POINT('',(-4.431845050625E-02,7.990426528137E-02,0.));
#359 = CARTESIAN_POINT('',(-4.39019582608E-02,8.226770609595E-02,0.));
#360 = CARTESIAN_POINT('',(-4.346782336379E-02,8.463930165896E-02,0.));
#361 = CARTESIAN_POINT('',(-4.301590297726E-02,8.701885549221E-02,0.));
#362 = CARTESIAN_POINT('',(-4.254606692403E-02,8.940617457409E-02,0.));
#363 = CARTESIAN_POINT('',(-4.205819724513E-02,9.180106936894E-02,0.));
#364 = CARTESIAN_POINT('',(-4.155218775795E-02,9.420335381665E-02,0.));
#365 = CARTESIAN_POINT('',(-4.102794361763E-02,9.661284528576E-02,0.));
#366 = CARTESIAN_POINT('',(-4.048538088447E-02,9.902936449315E-02,0.));
#367 = CARTESIAN_POINT('',(-3.992442609923E-02,0.101452735394,0.));
#368 = CARTESIAN_POINT('',(-3.934501586868E-02,0.103882785042,0.));
#369 = CARTESIAN_POINT('',(-3.874709646261E-02,0.106319343431,0.));
#370 = CARTESIAN_POINT('',(-3.813062342407E-02,0.10876224331,0.));
#371 = CARTESIAN_POINT('',(-3.749556119365E-02,0.111211319983,0.));
#372 = CARTESIAN_POINT('',(-3.6841882749E-02,0.113666411094,0.));
#373 = CARTESIAN_POINT('',(-3.616956925997E-02,0.116127356396,0.));
#374 = CARTESIAN_POINT('',(-3.547860976013E-02,0.118593997515,0.));
#375 = CARTESIAN_POINT('',(-3.476900083467E-02,0.121066177704,0.));
#376 = CARTESIAN_POINT('',(-3.404074632508E-02,0.123543741589,0.));
#377 = CARTESIAN_POINT('',(-3.329385705026E-02,0.126026534917,0.));
#378 = CARTESIAN_POINT('',(-3.252835054425E-02,0.128514404302,0.));
#379 = CARTESIAN_POINT('',(-3.17442508099E-02,0.131007196963,0.));
#380 = CARTESIAN_POINT('',(-3.094158808844E-02,0.133504760479,0.));
#381 = CARTESIAN_POINT('',(-3.012039864425E-02,0.136006942535,0.));
#382 = CARTESIAN_POINT('',(-2.928072456434E-02,0.138513590678,0.));
#383 = CARTESIAN_POINT('',(-2.8422613572E-02,0.141024552079,0.));
#384 = CARTESIAN_POINT('',(-2.75461188539E-02,0.143539673304,0.));
#385 = CARTESIAN_POINT('',(-2.665129889994E-02,0.146058800087,0.));
#386 = CARTESIAN_POINT('',(-2.573821735524E-02,0.148581777118,0.));
#387 = CARTESIAN_POINT('',(-2.480694288346E-02,0.151108447839,0.));
#388 = CARTESIAN_POINT('',(-2.385754904073E-02,0.153638654246,0.));
#389 = CARTESIAN_POINT('',(-2.289011415951E-02,0.156172236706,0.));
#390 = CARTESIAN_POINT('',(-2.190472124165E-02,0.158709033786,0.));
#391 = CARTESIAN_POINT('',(-2.090145785986E-02,0.161248882083,0.));
#392 = CARTESIAN_POINT('',(-1.988041606706E-02,0.163791616079,0.));
#393 = CARTESIAN_POINT('',(-1.884169231279E-02,0.166337067996,0.));
#394 = CARTESIAN_POINT('',(-1.778538736608E-02,0.168885067669,0.));
#395 = CARTESIAN_POINT('',(-1.671160624423E-02,0.171435442424,0.));
#396 = CARTESIAN_POINT('',(-1.562045814682E-02,0.173988016975,0.));
#397 = CARTESIAN_POINT('',(-1.451205639442E-02,0.176542613323,0.));
#398 = CARTESIAN_POINT('',(-1.338651837151E-02,0.179099050676,0.));
#399 = CARTESIAN_POINT('',(-1.2243965473E-02,0.181657145365,0.));
#400 = CARTESIAN_POINT('',(-1.108452305401E-02,0.184216710788,0.));
#401 = CARTESIAN_POINT('',(-9.908320382431E-03,0.186777557348,0.));
#402 = CARTESIAN_POINT('',(-8.715490593745E-03,0.18933949241,0.));
#403 = CARTESIAN_POINT('',(-7.506170647917E-03,0.191902320266,0.));
#404 = CARTESIAN_POINT('',(-6.28050128785E-03,0.194465842106,0.));
#405 = CARTESIAN_POINT('',(-5.038626999159E-03,0.197029856002,0.));
#406 = CARTESIAN_POINT('',(-3.780695970936E-03,0.199594156895,0.));
#407 = CARTESIAN_POINT('',(-2.506860057244E-03,0.202158536594,0.));
#408 = CARTESIAN_POINT('',(-1.217274739093E-03,0.204722783785,0.));
#409 = CARTESIAN_POINT('',(8.790091333708E-05,0.20728668404,0.));
#410 = CARTESIAN_POINT('',(1.408504278422E-03,0.209850019839,0.));
#411 = CARTESIAN_POINT('',(2.744369220953E-03,0.212412570599,0.));
#412 = CARTESIAN_POINT('',(4.095326130299E-03,0.214974112705,0.));
#413 = CARTESIAN_POINT('',(5.461201959018E-03,0.217534419548,0.));
#414 = CARTESIAN_POINT('',(6.841820262045E-03,0.220093261576,0.));
#415 = CARTESIAN_POINT('',(8.237001236578E-03,0.222650406339,0.));
#416 = CARTESIAN_POINT('',(9.646561762759E-03,0.225205618548,0.));
#417 = CARTESIAN_POINT('',(1.107031544524E-02,0.227758660137,0.));
#418 = CARTESIAN_POINT('',(1.250807265574E-02,0.230309290326,0.));
#419 = CARTESIAN_POINT('',(1.395964057657E-02,0.232857265689,0.));
#420 = CARTESIAN_POINT('',(1.542482324531E-02,0.235402340236,0.));
#421 = CARTESIAN_POINT('',(1.690342160061E-02,0.237944265483,0.));
#422 = CARTESIAN_POINT('',(1.839523352911E-02,0.240482790536,0.));
#423 = CARTESIAN_POINT('',(1.990005391366E-02,0.243017662179,0.));
#424 = CARTESIAN_POINT('',(2.14176746827E-02,0.245548624955,0.));
#425 = CARTESIAN_POINT('',(2.294788486091E-02,0.248075421268,0.));
#426 = CARTESIAN_POINT('',(2.449047062116E-02,0.250597791465,0.));
#427 = CARTESIAN_POINT('',(2.60452153377E-02,0.253115473943,0.));
#428 = CARTESIAN_POINT('',(2.761189964066E-02,0.255628205241,0.));
#429 = CARTESIAN_POINT('',(2.919030147184E-02,0.258135720144,0.));
#430 = CARTESIAN_POINT('',(3.078019614178E-02,0.260637751787,0.));
#431 = CARTESIAN_POINT('',(3.238135638809E-02,0.263134031761,0.));
#432 = CARTESIAN_POINT('',(3.399355243514E-02,0.265624290218,0.));
#433 = CARTESIAN_POINT('',(3.561655205495E-02,0.26810825598,0.));
#434 = CARTESIAN_POINT('',(3.725012062934E-02,0.270585656653,0.));
#435 = CARTESIAN_POINT('',(3.889402121343E-02,0.273056218736,0.));
#436 = CARTESIAN_POINT('',(4.054801460031E-02,0.275519667736,0.));
#437 = CARTESIAN_POINT('',(4.221185938694E-02,0.277975728279,0.));
#438 = CARTESIAN_POINT('',(4.388531204135E-02,0.280424124232,0.));
#439 = CARTESIAN_POINT('',(4.556812697096E-02,0.282864578816,0.));
#440 = CARTESIAN_POINT('',(4.726005659221E-02,0.285296814721,0.));
#441 = CARTESIAN_POINT('',(4.896085140129E-02,0.287720554232,0.));
#442 = CARTESIAN_POINT('',(5.067026004611E-02,0.290135519341,0.));
#443 = CARTESIAN_POINT('',(5.238802939944E-02,0.292541431872,0.));
#444 = CARTESIAN_POINT('',(5.411390463318E-02,0.294938013599,0.));
#445 = CARTESIAN_POINT('',(5.584762929381E-02,0.297324986368,0.));
#446 = CARTESIAN_POINT('',(5.7588945379E-02,0.29970207222,0.));
#447 = CARTESIAN_POINT('',(5.933759341536E-02,0.302068993513,0.));
#448 = CARTESIAN_POINT('',(6.109331253726E-02,0.304425473041,0.));
#449 = CARTESIAN_POINT('',(6.28558405669E-02,0.306771234163,0.));
#450 = CARTESIAN_POINT('',(6.462491409539E-02,0.309106000921,0.));
#451 = CARTESIAN_POINT('',(6.640026856501E-02,0.311429498167,0.));
#452 = CARTESIAN_POINT('',(6.818163835261E-02,0.313741451683,0.));
#453 = CARTESIAN_POINT('',(6.99687568541E-02,0.31604158831,0.));
#454 = CARTESIAN_POINT('',(7.176135657006E-02,0.318329636065,0.));
#455 = CARTESIAN_POINT('',(7.355916919247E-02,0.320605324271,0.));
#456 = CARTESIAN_POINT('',(7.536192569265E-02,0.322868383678,0.));
#457 = CARTESIAN_POINT('',(7.71693564102E-02,0.325118546586,0.));
#458 = CARTESIAN_POINT('',(7.898119114318E-02,0.327355546972,0.));
#459 = CARTESIAN_POINT('',(8.079715923944E-02,0.329579120607,0.));
#460 = CARTESIAN_POINT('',(8.261698968901E-02,0.331789005189,0.));
#461 = CARTESIAN_POINT('',(8.444041121779E-02,0.333984940458,0.));
#462 = CARTESIAN_POINT('',(8.626715238232E-02,0.33616666832,0.));
#463 = CARTESIAN_POINT('',(8.809694166577E-02,0.338333932976,0.));
#464 = CARTESIAN_POINT('',(8.992950757517E-02,0.340486481034,0.));
#465 = CARTESIAN_POINT('',(9.17645787398E-02,0.342624061642,0.));
#466 = CARTESIAN_POINT('',(9.360188401088E-02,0.344746426599,0.));
#467 = CARTESIAN_POINT('',(9.544115256244E-02,0.346853330483,0.));
#468 = CARTESIAN_POINT('',(9.728211399357E-02,0.348944530769,0.));
#469 = CARTESIAN_POINT('',(9.912449843185E-02,0.35101978795,0.));
#470 = CARTESIAN_POINT('',(0.100968036638,0.353078865651,0.));
#471 = CARTESIAN_POINT('',(0.102812460113,0.355121530757,0.));
#472 = CARTESIAN_POINT('',(0.104657501203,0.357147553521,0.));
#473 = CARTESIAN_POINT('',(0.106502893212,0.359156707688,0.));
#474 = CARTESIAN_POINT('',(0.108348370508,0.361148770608,0.));
#475 = CARTESIAN_POINT('',(0.110193668639,0.36312352335,0.));
#476 = CARTESIAN_POINT('',(0.112038524441,0.365080750819,0.));
#477 = CARTESIAN_POINT('',(0.113882676159,0.367020241868,0.));
#478 = CARTESIAN_POINT('',(0.115725863556,0.36894178941,0.));
#479 = CARTESIAN_POINT('',(0.117567828037,0.370845190527,0.));
#480 = CARTESIAN_POINT('',(0.119408312764,0.372730246582,0.));
#481 = CARTESIAN_POINT('',(0.121247062778,0.374596763326,0.));
#482 = CARTESIAN_POINT('',(0.123083825121,0.376444551003,0.));
#483 = CARTESIAN_POINT('',(0.124918348962,0.378273424457,0.));
#484 = CARTESIAN_POINT('',(0.126750385718,0.380083203233,0.));
#485 = CARTESIAN_POINT('',(0.128579689186,0.38187371168,0.));
#486 = CARTESIAN_POINT('',(0.130406015668,0.383644779049,0.));
#487 = CARTESIAN_POINT('',(0.132229124104,0.385396239591,0.));
#488 = CARTESIAN_POINT('',(0.134048776201,0.387127932649,0.));
#489 = CARTESIAN_POINT('',(0.13586473657,0.388839702754,0.));
#490 = CARTESIAN_POINT('',(0.137676772859,0.390531399712,0.));
#491 = CARTESIAN_POINT('',(0.139484655888,0.392202878694,0.));
#492 = CARTESIAN_POINT('',(0.141288159792,0.393854000314,0.));
#493 = CARTESIAN_POINT('',(0.143087062158,0.395484630717,0.));
#494 = CARTESIAN_POINT('',(0.144881144163,0.39709464165,0.));
#495 = CARTESIAN_POINT('',(0.146670190722,0.398683910539,0.));
#496 = CARTESIAN_POINT('',(0.148453990631,0.400252320557,0.));
#497 = CARTESIAN_POINT('',(0.150232336708,0.401799760694,0.));
#498 = CARTESIAN_POINT('',(0.152005025941,0.40332612581,0.));
#499 = CARTESIAN_POINT('',(0.153771859637,0.404831316698,0.));
#500 = CARTESIAN_POINT('',(0.155532643568,0.406315240134,0.));
#501 = CARTESIAN_POINT('',(0.157287188118,0.407777808922,0.));
#502 = CARTESIAN_POINT('',(0.159035308434,0.409218941934,0.));
#503 = CARTESIAN_POINT('',(0.16077682457,0.410638564145,0.));
#504 = CARTESIAN_POINT('',(0.162511561642,0.412036606661,0.));
#505 = CARTESIAN_POINT('',(0.164239349971,0.413413006738,0.));
#506 = CARTESIAN_POINT('',(0.165960025228,0.414767707799,0.));
#507 = CARTESIAN_POINT('',(0.167673428584,0.416100659435,0.));
#508 = CARTESIAN_POINT('',(0.169379406849,0.417411817407,0.));
#509 = CARTESIAN_POINT('',(0.171077812616,0.41870114363,0.));
#510 = CARTESIAN_POINT('',(0.172768504394,0.419968606159,0.));
#511 = CARTESIAN_POINT('',(0.174451346744,0.421214179151,0.));
#512 = CARTESIAN_POINT('',(0.176126210405,0.422437842828,0.));
#513 = CARTESIAN_POINT('',(0.177792972419,0.423639583429,0.));
#514 = CARTESIAN_POINT('',(0.179451516247,0.424819393137,0.));
#515 = CARTESIAN_POINT('',(0.181101731869,0.425977270015,0.));
#516 = CARTESIAN_POINT('',(0.182743515893,0.42711321791,0.));
#517 = CARTESIAN_POINT('',(0.184376771633,0.428227246353,0.));
#518 = CARTESIAN_POINT('',(0.186001409184,0.429319370447,0.));
#519 = CARTESIAN_POINT('',(0.187617345487,0.430389610732,0.));
#520 = CARTESIAN_POINT('',(0.189224504365,0.431437993044,0.));
#521 = CARTESIAN_POINT('',(0.190822816548,0.432464548352,0.));
#522 = CARTESIAN_POINT('',(0.192412219678,0.43346931258,0.));
#523 = CARTESIAN_POINT('',(0.19399265828,0.434452326415,0.));
#524 = CARTESIAN_POINT('',(0.195564083715,0.435413635093,0.));
#525 = CARTESIAN_POINT('',(0.197126454094,0.436353288174,0.));
#526 = CARTESIAN_POINT('',(0.198679734162,0.437271339291,0.));
#527 = CARTESIAN_POINT('',(0.200223895132,0.438167845888,0.));
#528 = CARTESIAN_POINT('',(0.201758914489,0.439042868937,0.));
#529 = CARTESIAN_POINT('',(0.203284775723,0.439896472638,0.));
#530 = CARTESIAN_POINT('',(0.204801468025,0.440728724101,0.));
#531 = CARTESIAN_POINT('',(0.206308985901,0.441539693014,0.));
#532 = CARTESIAN_POINT('',(0.207807328728,0.442329451291,0.));
#533 = CARTESIAN_POINT('',(0.209296500215,0.443098072712,0.));
#534 = CARTESIAN_POINT('',(0.210776507788,0.443845632545,0.));
#535 = CARTESIAN_POINT('',(0.212247361864,0.444572207162,0.));
#536 = CARTESIAN_POINT('',(0.213709075015,0.44527787365,0.));
#537 = CARTESIAN_POINT('',(0.215161661003,0.44596270941,0.));
#538 = CARTESIAN_POINT('',(0.216605133681,0.44662679177,0.));
#539 = CARTESIAN_POINT('',(0.218039505724,0.447270197596,0.));
#540 = CARTESIAN_POINT('',(0.219464787195,0.44789300292,0.));
#541 = CARTESIAN_POINT('',(0.220880983906,0.448495282584,0.));
#542 = CARTESIAN_POINT('',(0.222288095556,0.449077109923,0.));
#543 = CARTESIAN_POINT('',(0.223686113627,0.449638556485,0.));
#544 = CARTESIAN_POINT('',(0.225075018993,0.450179691796,0.));
#545 = CARTESIAN_POINT('',(0.226454779215,0.450700583209,0.));
#546 = CARTESIAN_POINT('',(0.227825345487,0.451201295823,0.));
#547 = CARTESIAN_POINT('',(0.229186649171,0.451681892513,0.));
#548 = CARTESIAN_POINT('',(0.230538597881,0.45214243409,0.));
#549 = CARTESIAN_POINT('',(0.231881071041,0.452582979603,0.));
#550 = CARTESIAN_POINT('',(0.233213914853,0.453003586835,0.));
#551 = CARTESIAN_POINT('',(0.234536936572,0.453404313005,0.));
#552 = CARTESIAN_POINT('',(0.235849897992,0.453785215737,0.));
#553 = CARTESIAN_POINT('',(0.237152507999,0.454146354315,0.));
#554 = CARTESIAN_POINT('',(0.238444414045,0.454487791303,0.));
#555 = CARTESIAN_POINT('',(0.239725192336,0.454809594569,0.));
#556 = CARTESIAN_POINT('',(0.240994336485,0.455111839784,0.));
#557 = CARTESIAN_POINT('',(0.24225124433,0.455394613487,0.));
#558 = CARTESIAN_POINT('',(0.243495202516,0.455658016784,0.));
#559 = CARTESIAN_POINT('',(0.244725368345,0.4559021698,0.));
#560 = CARTESIAN_POINT('',(0.245940748233,0.456127217005,0.));
#561 = CARTESIAN_POINT('',(0.247140171941,0.456333333536,0.));
#562 = CARTESIAN_POINT('',(0.248322261447,0.456520732696,0.));
#563 = CARTESIAN_POINT('',(0.249485392987,0.456689674796,0.));
#564 = CARTESIAN_POINT('',(0.250627650261,0.456840477567,0.));
#565 = CARTESIAN_POINT('',(0.251746766098,0.456973528374,0.));
#566 = CARTESIAN_POINT('',(0.252840048841,0.457089298497,0.));
#567 = CARTESIAN_POINT('',(0.253904288296,0.457188359751,0.));
#568 = CARTESIAN_POINT('',(0.254935633912,0.457271403686,0.));
#569 = CARTESIAN_POINT('',(0.255929434788,0.457339263547,0.));
#570 = CARTESIAN_POINT('',(0.256880026344,0.457392938733,0.));
#571 = CARTESIAN_POINT('',(0.257780441321,0.457433621675,0.));
#572 = CARTESIAN_POINT('',(0.2586220115,0.457462723182,0.));
#573 = CARTESIAN_POINT('',(0.259393808639,0.457481898984,0.));
#574 = CARTESIAN_POINT('',(0.260081843712,0.457493044821,0.));
#575 = CARTESIAN_POINT('',(0.260667895002,0.457498314056,0.));
#576 = CARTESIAN_POINT('',(0.261127749734,0.457499895809,0.));
#577 = CARTESIAN_POINT('',(0.261389657323,0.457500041127,-0.));
#578 = CARTESIAN_POINT('',(0.26149477,0.4575,0.));
#579 = AXIS1_PLACEMENT('',#580,#581);
#580 = CARTESIAN_POINT('',(0.,0.,0.));
#581 = DIRECTION('',(1.,0.,0.));
#582 = DEFINITIONAL_REPRESENTATION('',(#583),#587);
#583 = LINE('',#584,#585);
#584 = CARTESIAN_POINT('',(0.,0.));
#585 = VECTOR('',#586,1.);
#586 = DIRECTION('',(0.,1.));
#587 = ( GEOMETRIC_REPRESENTATION_CONTEXT(2) 
PARAMETRIC_REPRESENTATION_CONTEXT() REPRESENTATION_CONTEXT('2D SPACE',''
  ) );
#588 = PCURVE('',#318,#589);
#589 = DEFINITIONAL_REPRESENTATION('',(#590),#594);
#590 = LINE('',#591,#592);
#591 = CARTESIAN_POINT('',(6.28318530718,0.));
#592 = VECTOR('',#593,1.);
#593 = DIRECTION('',(0.,1.));
#594 = ( GEOMETRIC_REPRESENTATION_CONTEXT(2) 
PARAMETRIC_REPRESENTATION_CONTEXT() REPRESENTATION_CONTEXT('2D SPACE',''
  ) );
#595 = ORIENTED_EDGE('',*,*,#596,.F.);
#596 = EDGE_CURVE('',#54,#54,#597,.T.);
#597 = SURFACE_CURVE('',#598,(#603,#610),.PCURVE_S1.);
#598 = CIRCLE('',#599,0.4575);
#599 = AXIS2_PLACEMENT_3D('',#600,#601,#602);
#600 = CARTESIAN_POINT('',(0.26149477,0.,0.));
#601 = DIRECTION('',(1.,0.,0.));
#602 = DIRECTION('',(-0.,1.,0.));
#603 = PCURVE('',#318,#604);
#604 = DEFINITIONAL_REPRESENTATION('',(#605),#609);
#605 = LINE('',#606,#607);
#606 = CARTESIAN_POINT('',(0.,0.589636485535));
#607 = VECTOR('',#608,1.);
#608 = DIRECTION('',(1.,0.));
#609 = ( GEOMETRIC_REPRESENTATION_CONTEXT(2) 
PARAMETRIC_REPRESENTATION_CONTEXT() REPRESENTATION_CONTEXT('2D SPACE',''
  ) );
#610 = PCURVE('',#611,#616);
#611 = CYLINDRICAL_SURFACE('',#612,0.4575);
#612 = AXIS2_PLACEMENT_3D('',#613,#614,#615);
#613 = CARTESIAN_POINT('',(0.26149477,0.,0.));
#614 = DIRECTION('',(1.,0.,0.));
#615 = DIRECTION('',(-0.,1.,0.));
#616 = DEFINITIONAL_REPRESENTATION('',(#617),#621);
#617 = LINE('',#618,#619);
#618 = CARTESIAN_POINT('',(0.,0.));
#619 = VECTOR('',#620,1.);
#620 = DIRECTION('',(1.,0.));
#621 = ( GEOMETRIC_REPRESENTATION_CONTEXT(2) 
PARAMETRIC_REPRESENTATION_CONTEXT() REPRESENTATION_CONTEXT('2D SPACE',''
  ) );
#622 = ORIENTED_EDGE('',*,*,#51,.F.);
#623 = ADVANCED_FACE('',(#624),#611,.T.);
#624 = FACE_BOUND('',#625,.T.);
#625 = EDGE_LOOP('',(#626,#627,#650,#677));
#626 = ORIENTED_EDGE('',*,*,#596,.T.);
#627 = ORIENTED_EDGE('',*,*,#628,.T.);
#628 = EDGE_CURVE('',#54,#629,#631,.T.);
#629 = VERTEX_POINT('',#630);
#630 = CARTESIAN_POINT('',(2.3,0.4575,0.));
#631 = SEAM_CURVE('',#632,(#636,#643),.PCURVE_S1.);
#632 = LINE('',#633,#634);
#633 = CARTESIAN_POINT('',(0.26149477,0.4575,0.));
#634 = VECTOR('',#635,1.);
#635 = DIRECTION('',(1.,2.723130184525E-17,0.));
#636 = PCURVE('',#611,#637);
#637 = DEFINITIONAL_REPRESENTATION('',(#638),#642);
#638 = LINE('',#639,#640);
#639 = CARTESIAN_POINT('',(0.,0.));
#640 = VECTOR('',#641,1.);
#641 = DIRECTION('',(0.,1.));
#642 = ( GEOMETRIC_REPRESENTATION_CONTEXT(2) 
PARAMETRIC_REPRESENTATION_CONTEXT() REPRESENTATION_CONTEXT('2D SPACE',''
  ) );
#643 = PCURVE('',#611,#644);
#644 = DEFINITIONAL_REPRESENTATION('',(#645),#649);
#645 = LINE('',#646,#647);
#646 = CARTESIAN_POINT('',(6.28318530718,0.));
#647 = VECTOR('',#648,1.);
#648 = DIRECTION('',(0.,1.));
#649 = ( GEOMETRIC_REPRESENTATION_CONTEXT(2) 
PARAMETRIC_REPRESENTATION_CONTEXT() REPRESENTATION_CONTEXT('2D SPACE',''
  ) );
#650 = ORIENTED_EDGE('',*,*,#651,.F.);
#651 = EDGE_CURVE('',#629,#629,#652,.T.);
#652 = SURFACE_CURVE('',#653,(#658,#665),.PCURVE_S1.);
#653 = CIRCLE('',#654,0.4575);
#654 = AXIS2_PLACEMENT_3D('',#655,#656,#657);
#655 = CARTESIAN_POINT('',(2.3,0.,0.));
#656 = DIRECTION('',(1.,0.,0.));
#657 = DIRECTION('',(-0.,1.,0.));
#658 = PCURVE('',#611,#659);
#659 = DEFINITIONAL_REPRESENTATION('',(#660),#664);
#660 = LINE('',#661,#662);
#661 = CARTESIAN_POINT('',(0.,2.03850523));
#662 = VECTOR('',#663,1.);
#663 = DIRECTION('',(1.,0.));
#664 = ( GEOMETRIC_REPRESENTATION_CONTEXT(2) 
PARAMETRIC_REPRESENTATION_CONTEXT() REPRESENTATION_CONTEXT('2D SPACE',''
  ) );
#665 = PCURVE('',#666,#671);
#666 = TOROIDAL_SURFACE('',#667,0.4075,5.E-02);
#667 = AXIS2_PLACEMENT_3D('',#668,#669,#670);
#668 = CARTESIAN_POINT('',(2.3,0.,0.));
#669 = DIRECTION('',(1.,0.,0.));
#670 = DIRECTION('',(-0.,1.,0.));
#671 = DEFINITIONAL_REPRESENTATION('',(#672),#676);
#672 = LINE('',#673,#674);
#673 = CARTESIAN_POINT('',(0.,0.));
#674 = VECTOR('',#675,1.);
#675 = DIRECTION('',(1.,0.));
#676 = ( GEOMETRIC_REPRESENTATION_CONTEXT(2) 
PARAMETRIC_REPRESENTATION_CONTEXT() REPRESENTATION_CONTEXT('2D SPACE',''
  ) );
#677 = ORIENTED_EDGE('',*,*,#628,.F.);
#678 = ADVANCED_FACE('',(#679),#666,.T.);
#679 = FACE_BOUND('',#680,.T.);
#680 = EDGE_LOOP('',(#681,#682,#706,#733));
#681 = ORIENTED_EDGE('',*,*,#651,.T.);
#682 = ORIENTED_EDGE('',*,*,#683,.T.);
#683 = EDGE_CURVE('',#629,#684,#686,.T.);
#684 = VERTEX_POINT('',#685);
#685 = CARTESIAN_POINT('',(2.35,0.4075,0.));
#686 = SEAM_CURVE('',#687,(#692,#699),.PCURVE_S1.);
#687 = CIRCLE('',#688,5.E-02);
#688 = AXIS2_PLACEMENT_3D('',#689,#690,#691);
#689 = CARTESIAN_POINT('',(2.3,0.4075,0.));
#690 = DIRECTION('',(0.,-0.,-1.));
#691 = DIRECTION('',(1.,0.,-0.));
#692 = PCURVE('',#666,#693);
#693 = DEFINITIONAL_REPRESENTATION('',(#694),#698);
#694 = LINE('',#695,#696);
#695 = CARTESIAN_POINT('',(0.,-4.712388980385));
#696 = VECTOR('',#697,1.);
#697 = DIRECTION('',(0.,1.));
#698 = ( GEOMETRIC_REPRESENTATION_CONTEXT(2) 
PARAMETRIC_REPRESENTATION_CONTEXT() REPRESENTATION_CONTEXT('2D SPACE',''
  ) );
#699 = PCURVE('',#666,#700);
#700 = DEFINITIONAL_REPRESENTATION('',(#701),#705);
#701 = LINE('',#702,#703);
#702 = CARTESIAN_POINT('',(6.28318530718,-4.712388980385));
#703 = VECTOR('',#704,1.);
#704 = DIRECTION('',(0.,1.));
#705 = ( GEOMETRIC_REPRESENTATION_CONTEXT(2) 
PARAMETRIC_REPRESENTATION_CONTEXT() REPRESENTATION_CONTEXT('2D SPACE',''
  ) );
#706 = ORIENTED_EDGE('',*,*,#707,.F.);
#707 = EDGE_CURVE('',#684,#684,#708,.T.);
#708 = SURFACE_CURVE('',#709,(#714,#721),.PCURVE_S1.);
#709 = CIRCLE('',#710,0.4075);
#710 = AXIS2_PLACEMENT_3D('',#711,#712,#713);
#711 = CARTESIAN_POINT('',(2.35,0.,0.));
#712 = DIRECTION('',(1.,0.,0.));
#713 = DIRECTION('',(-0.,1.,0.));
#714 = PCURVE('',#666,#715);
#715 = DEFINITIONAL_REPRESENTATION('',(#716),#720);
#716 = LINE('',#717,#718);
#717 = CARTESIAN_POINT('',(0.,1.570796326795));
#718 = VECTOR('',#719,1.);
#719 = DIRECTION('',(1.,0.));
#720 = ( GEOMETRIC_REPRESENTATION_CONTEXT(2) 
PARAMETRIC_REPRESENTATION_CONTEXT() REPRESENTATION_CONTEXT('2D SPACE',''
  ) );
#721 = PCURVE('',#722,#727);
#722 = PLANE('',#723);
#723 = AXIS2_PLACEMENT_3D('',#724,#725,#726);
#724 = CARTESIAN_POINT('',(2.35,0.,0.));
#725 = DIRECTION('',(1.,0.,0.));
#726 = DIRECTION('',(-0.,1.,0.));
#727 = DEFINITIONAL_REPRESENTATION('',(#728),#732);
#728 = CIRCLE('',#729,0.4075);
#729 = AXIS2_PLACEMENT_2D('',#730,#731);
#730 = CARTESIAN_POINT('',(0.,0.));
#731 = DIRECTION('',(1.,0.));
#732 = ( GEOMETRIC_REPRESENTATION_CONTEXT(2) 
PARAMETRIC_REPRESENTATION_CONTEXT() REPRESENTATION_CONTEXT('2D SPACE',''
  ) );
#733 = ORIENTED_EDGE('',*,*,#683,.F.);
#734 = ADVANCED_FACE('',(#735),#722,.T.);
#735 = FACE_BOUND('',#736,.T.);
#736 = EDGE_LOOP('',(#737));
#737 = ORIENTED_EDGE('',*,*,#707,.T.);
#738 = ORIENTED_CLOSED_SHELL('',*,#739,.F.);
#739 = CLOSED_SHELL('',(#740,#854,#909));
#740 = ADVANCED_FACE('',(#741),#758,.T.);
#741 = FACE_BOUND('',#742,.T.);
#742 = EDGE_LOOP('',(#743,#826,#853));
#743 = ORIENTED_EDGE('',*,*,#744,.T.);
#744 = EDGE_CURVE('',#745,#747,#749,.T.);
#745 = VERTEX_POINT('',#746);
#746 = CARTESIAN_POINT('',(0.,0.,0.));
#747 = VERTEX_POINT('',#748);
#748 = CARTESIAN_POINT('',(0.26149477,0.4075,0.));
#749 = SEAM_CURVE('',#750,(#757,#797),.PCURVE_S1.);
#750 = B_SPLINE_CURVE_WITH_KNOTS('',5,(#751,#752,#753,#754,#755,#756),
  .UNSPECIFIED.,.F.,.F.,(6,6),(0.,1.),.PIECEWISE_BEZIER_KNOTS.);
#751 = CARTESIAN_POINT('',(0.,0.,0.));
#752 = CARTESIAN_POINT('',(0.,9.664525E-02,0.));
#753 = CARTESIAN_POINT('',(5.E-03,0.18497527,0.));
#754 = CARTESIAN_POINT('',(0.17271875,0.4075,0.));
#755 = CARTESIAN_POINT('',(0.25,0.4075,0.));
#756 = CARTESIAN_POINT('',(0.26149477,0.4075,0.));
#757 = PCURVE('',#758,#769);
#758 = SURFACE_OF_REVOLUTION('',#759,#766);
#759 = B_SPLINE_CURVE_WITH_KNOTS('',5,(#760,#761,#762,#763,#764,#765),
  .UNSPECIFIED.,.F.,.F.,(6,6),(0.,1.),.PIECEWISE_BEZIER_KNOTS.);
#760 = CARTESIAN_POINT('',(0.,0.,0.));
#761 = CARTESIAN_POINT('',(0.,9.664525E-02,0.));
#762 = CARTESIAN_POINT('',(5.E-03,0.18497527,0.));
#763 = CARTESIAN_POINT('',(0.17271875,0.4075,0.));
#764 = CARTESIAN_POINT('',(0.25,0.4075,0.));
#765 = CARTESIAN_POINT('',(0.26149477,0.4075,0.));
#766 = AXIS1_PLACEMENT('',#767,#768);
#767 = CARTESIAN_POINT('',(0.,0.,0.));
#768 = DIRECTION('',(1.,0.,0.));
#769 = DEFINITIONAL_REPRESENTATION('',(#770),#796);
#770 = B_SPLINE_CURVE_WITH_KNOTS('',3,(#771,#772,#773,#774,#775,#776,
    #777,#778,#779,#780,#781,#782,#783,#784,#785,#786,#787,#788,#789,
    #790,#791,#792,#793,#794,#795),.UNSPECIFIED.,.F.,.F.,(4,1,1,1,1,1,1,
    1,1,1,1,1,1,1,1,1,1,1,1,1,1,1,4),(0.,4.545454545455E-02,
    9.090909090909E-02,0.136363636364,0.181818181818,0.227272727273,
    0.272727272727,0.318181818182,0.363636363636,0.409090909091,
    0.454545454545,0.5,0.545454545455,0.590909090909,0.636363636364,
    0.681818181818,0.727272727273,0.772727272727,0.818181818182,
    0.863636363636,0.909090909091,0.954545454545,1.),
  .QUASI_UNIFORM_KNOTS.);
#771 = CARTESIAN_POINT('',(6.28318530718,0.));
#772 = CARTESIAN_POINT('',(6.28318530718,1.515151515152E-02));
#773 = CARTESIAN_POINT('',(6.28318530718,4.545454545455E-02));
#774 = CARTESIAN_POINT('',(6.28318530718,9.090909090909E-02));
#775 = CARTESIAN_POINT('',(6.28318530718,0.136363636364));
#776 = CARTESIAN_POINT('',(6.28318530718,0.181818181818));
#777 = CARTESIAN_POINT('',(6.28318530718,0.227272727273));
#778 = CARTESIAN_POINT('',(6.28318530718,0.272727272727));
#779 = CARTESIAN_POINT('',(6.28318530718,0.318181818182));
#780 = CARTESIAN_POINT('',(6.28318530718,0.363636363636));
#781 = CARTESIAN_POINT('',(6.28318530718,0.409090909091));
#782 = CARTESIAN_POINT('',(6.28318530718,0.454545454545));
#783 = CARTESIAN_POINT('',(6.28318530718,0.5));
#784 = CARTESIAN_POINT('',(6.28318530718,0.545454545455));
#785 = CARTESIAN_POINT('',(6.28318530718,0.590909090909));
#786 = CARTESIAN_POINT('',(6.28318530718,0.636363636364));
#787 = CARTESIAN_POINT('',(6.28318530718,0.681818181818));
#788 = CARTESIAN_POINT('',(6.28318530718,0.727272727273));
#789 = CARTESIAN_POINT('',(6.28318530718,0.772727272727));
#790 = CARTESIAN_POINT('',(6.28318530718,0.818181818182));
#791 = CARTESIAN_POINT('',(6.28318530718,0.863636363636));
#792 = CARTESIAN_POINT('',(6.28318530718,0.909090909091));
#793 = CARTESIAN_POINT('',(6.28318530718,0.954545454545));
#794 = CARTESIAN_POINT('',(6.28318530718,0.984848484848));
#795 = CARTESIAN_POINT('',(6.28318530718,1.));
#796 = ( GEOMETRIC_REPRESENTATION_CONTEXT(2) 
PARAMETRIC_REPRESENTATION_CONTEXT() REPRESENTATION_CONTEXT('2D SPACE',''
  ) );
#797 = PCURVE('',#758,#798);
#798 = DEFINITIONAL_REPRESENTATION('',(#799),#825);
#799 = B_SPLINE_CURVE_WITH_KNOTS('',3,(#800,#801,#802,#803,#804,#805,
    #806,#807,#808,#809,#810,#811,#812,#813,#814,#815,#816,#817,#818,
    #819,#820,#821,#822,#823,#824),.UNSPECIFIED.,.F.,.F.,(4,1,1,1,1,1,1,
    1,1,1,1,1,1,1,1,1,1,1,1,1,1,1,4),(0.,4.545454545455E-02,
    9.090909090909E-02,0.136363636364,0.181818181818,0.227272727273,
    0.272727272727,0.318181818182,0.363636363636,0.409090909091,
    0.454545454545,0.5,0.545454545455,0.590909090909,0.636363636364,
    0.681818181818,0.727272727273,0.772727272727,0.818181818182,
    0.863636363636,0.909090909091,0.954545454545,1.),
  .QUASI_UNIFORM_KNOTS.);
#800 = CARTESIAN_POINT('',(0.,0.));
#801 = CARTESIAN_POINT('',(0.,1.515151515152E-02));
#802 = CARTESIAN_POINT('',(0.,4.545454545455E-02));
#803 = CARTESIAN_POINT('',(0.,9.090909090909E-02));
#804 = CARTESIAN_POINT('',(0.,0.136363636364));
#805 = CARTESIAN_POINT('',(0.,0.181818181818));
#806 = CARTESIAN_POINT('',(0.,0.227272727273));
#807 = CARTESIAN_POINT('',(0.,0.272727272727));
#808 = CARTESIAN_POINT('',(0.,0.318181818182));
#809 = CARTESIAN_POINT('',(0.,0.363636363636));
#810 = CARTESIAN_POINT('',(0.,0.409090909091));
#811 = CARTESIAN_POINT('',(0.,0.454545454545));
#812 = CARTESIAN_POINT('',(0.,0.5));
#813 = CARTESIAN_POINT('',(0.,0.545454545455));
#814 = CARTESIAN_POINT('',(0.,0.590909090909));
#815 = CARTESIAN_POINT('',(0.,0.636363636364));
#816 = CARTESIAN_POINT('',(0.,0.681818181818));
#817 = CARTESIAN_POINT('',(0.,0.727272727273));
#818 = CARTESIAN_POINT('',(0.,0.772727272727));
#819 = CARTESIAN_POINT('',(0.,0.818181818182));
#820 = CARTESIAN_POINT('',(0.,0.863636363636));
#821 = CARTESIAN_POINT('',(0.,0.909090909091));
#822 = CARTESIAN_POINT('',(0.,0.954545454545));
#823 = CARTESIAN_POINT('',(0.,0.984848484848));
#824 = CARTESIAN_POINT('',(0.,1.));
#825 = ( GEOMETRIC_REPRESENTATION_CONTEXT(2) 
PARAMETRIC_REPRESENTATION_CONTEXT() REPRESENTATION_CONTEXT('2D SPACE',''
  ) );
#826 = ORIENTED_EDGE('',*,*,#827,.F.);
#827 = EDGE_CURVE('',#747,#747,#828,.T.);
#828 = SURFACE_CURVE('',#829,(#834,#841),.PCURVE_S1.);
#829 = CIRCLE('',#830,0.4075);
#830 = AXIS2_PLACEMENT_3D('',#831,#832,#833);
#831 = CARTESIAN_POINT('',(0.26149477,0.,0.));
#832 = DIRECTION('',(1.,0.,0.));
#833 = DIRECTION('',(-0.,1.,0.));
#834 = PCURVE('',#758,#835);
#835 = DEFINITIONAL_REPRESENTATION('',(#836),#840);
#836 = LINE('',#837,#838);
#837 = CARTESIAN_POINT('',(0.,1.));
#838 = VECTOR('',#839,1.);
#839 = DIRECTION('',(1.,0.));
#840 = ( GEOMETRIC_REPRESENTATION_CONTEXT(2) 
PARAMETRIC_REPRESENTATION_CONTEXT() REPRESENTATION_CONTEXT('2D SPACE',''
  ) );
#841 = PCURVE('',#842,#847);
#842 = CYLINDRICAL_SURFACE('',#843,0.4075);
#843 = AXIS2_PLACEMENT_3D('',#844,#845,#846);
#844 = CARTESIAN_POINT('',(0.26149477,0.,0.));
#845 = DIRECTION('',(1.,0.,0.));
#846 = DIRECTION('',(-0.,1.,0.));
#847 = DEFINITIONAL_REPRESENTATION('',(#848),#852);
#848 = LINE('',#849,#850);
#849 = CARTESIAN_POINT('',(0.,0.));
#850 = VECTOR('',#851,1.);
#851 = DIRECTION('',(1.,0.));
#852 = ( GEOMETRIC_REPRESENTATION_CONTEXT(2) 
PARAMETRIC_REPRESENTATION_CONTEXT() REPRESENTATION_CONTEXT('2D SPACE',''
  ) );
#853 = ORIENTED_EDGE('',*,*,#744,.F.);
#854 = ADVANCED_FACE('',(#855),#842,.T.);
#855 = FACE_BOUND('',#856,.T.);
#856 = EDGE_LOOP('',(#857,#858,#881,#908));
#857 = ORIENTED_EDGE('',*,*,#827,.T.);
#858 = ORIENTED_EDGE('',*,*,#859,.T.);
#859 = EDGE_CURVE('',#747,#860,#862,.T.);
#860 = VERTEX_POINT('',#861);
#861 = CARTESIAN_POINT('',(2.3,0.4075,0.));
#862 = SEAM_CURVE('',#863,(#867,#874),.PCURVE_S1.);
#863 = LINE('',#864,#865);
#864 = CARTESIAN_POINT('',(0.26149477,0.4075,0.));
#865 = VECTOR('',#866,1.);
#866 = DIRECTION('',(1.,0.,0.));
#867 = PCURVE('',#842,#868);
#868 = DEFINITIONAL_REPRESENTATION('',(#869),#873);
#869 = LINE('',#870,#871);
#870 = CARTESIAN_POINT('',(6.28318530718,0.));
#871 = VECTOR('',#872,1.);
#872 = DIRECTION('',(0.,1.));
#873 = ( GEOMETRIC_REPRESENTATION_CONTEXT(2) 
PARAMETRIC_REPRESENTATION_CONTEXT() REPRESENTATION_CONTEXT('2D SPACE',''
  ) );
#874 = PCURVE('',#842,#875);
#875 = DEFINITIONAL_REPRESENTATION('',(#876),#880);
#876 = LINE('',#877,#878);
#877 = CARTESIAN_POINT('',(0.,0.));
#878 = VECTOR('',#879,1.);
#879 = DIRECTION('',(0.,1.));
#880 = ( GEOMETRIC_REPRESENTATION_CONTEXT(2) 
PARAMETRIC_REPRESENTATION_CONTEXT() REPRESENTATION_CONTEXT('2D SPACE',''
  ) );
#881 = ORIENTED_EDGE('',*,*,#882,.F.);
#882 = EDGE_CURVE('',#860,#860,#883,.T.);
#883 = SURFACE_CURVE('',#884,(#889,#896),.PCURVE_S1.);
#884 = CIRCLE('',#885,0.4075);
#885 = AXIS2_PLACEMENT_3D('',#886,#887,#888);
#886 = CARTESIAN_POINT('',(2.3,0.,0.));
#887 = DIRECTION('',(1.,0.,0.));
#888 = DIRECTION('',(-0.,1.,0.));
#889 = PCURVE('',#842,#890);
#890 = DEFINITIONAL_REPRESENTATION('',(#891),#895);
#891 = LINE('',#892,#893);
#892 = CARTESIAN_POINT('',(0.,2.03850523));
#893 = VECTOR('',#894,1.);
#894 = DIRECTION('',(1.,0.));
#895 = ( GEOMETRIC_REPRESENTATION_CONTEXT(2) 
PARAMETRIC_REPRESENTATION_CONTEXT() REPRESENTATION_CONTEXT('2D SPACE',''
  ) );
#896 = PCURVE('',#897,#902);
#897 = PLANE('',#898);
#898 = AXIS2_PLACEMENT_3D('',#899,#900,#901);
#899 = CARTESIAN_POINT('',(2.3,0.,0.));
#900 = DIRECTION('',(1.,0.,0.));
#901 = DIRECTION('',(-0.,1.,0.));
#902 = DEFINITIONAL_REPRESENTATION('',(#903),#907);
#903 = CIRCLE('',#904,0.4075);
#904 = AXIS2_PLACEMENT_2D('',#905,#906);
#905 = CARTESIAN_POINT('',(0.,0.));
#906 = DIRECTION('',(1.,0.));
#907 = ( GEOMETRIC_REPRESENTATION_CONTEXT(2) 
PARAMETRIC_REPRESENTATION_CONTEXT() REPRESENTATION_CONTEXT('2D SPACE',''
  ) );
#908 = ORIENTED_EDGE('',*,*,#859,.F.);
#909 = ADVANCED_FACE('',(#910),#897,.T.);
#910 = FACE_BOUND('',#911,.T.);
#911 = EDGE_LOOP('',(#912));
#912 = ORIENTED_EDGE('',*,*,#882,.T.);
#913 = ( GEOMETRIC_REPRESENTATION_CONTEXT(3) 
GLOBAL_UNCERTAINTY_ASSIGNED_CONTEXT((#917)) GLOBAL_UNIT_ASSIGNED_CONTEXT
((#914,#915,#916)) REPRESENTATION_CONTEXT('Context #1',
  '3D Context with UNIT and UNCERTAINTY') );
#914 = ( LENGTH_UNIT() NAMED_UNIT(*) SI_UNIT(.MILLI.,.METRE.) );
#915 = ( NAMED_UNIT(*) PLANE_ANGLE_UNIT() SI_UNIT($,.RADIAN.) );
#916 = ( NAMED_UNIT(*) SI_UNIT($,.STERADIAN.) SOLID_ANGLE_UNIT() );
#917 = UNCERTAINTY_MEASURE_WITH_UNIT(LENGTH_MEASURE(1.E-07),#914,
  'distance_accuracy_value','confusion accuracy');
#918 = CONTEXT_DEPENDENT_SHAPE_REPRESENTATION(#919,#921);
#919 = ( REPRESENTATION_RELATIONSHIP('','',#44,#10) 
REPRESENTATION_RELATIONSHIP_WITH_TRANSFORMATION(#920) 
SHAPE_REPRESENTATION_RELATIONSHIP() );
#920 = ITEM_DEFINED_TRANSFORMATION('','',#11,#15);
#921 = PRODUCT_DEFINITION_SHAPE('Placement','Placement of an item',#922
  );
#922 = NEXT_ASSEMBLY_USAGE_OCCURRENCE('1','','',#5,#39,$);
#923 = PRODUCT_RELATED_PRODUCT_CATEGORY('part',$,(#41));
#924 = SHAPE_DEFINITION_REPRESENTATION(#925,#931);
#925 = PRODUCT_DEFINITION_SHAPE('','',#926);
#926 = PRODUCT_DEFINITION('design','',#927,#930);
#927 = PRODUCT_DEFINITION_FORMATION('','',#928);
#928 = PRODUCT('Open CASCADE STEP translator 7.8 1.2',
  'Open CASCADE STEP translator 7.8 1.2','',(#929));
#929 = PRODUCT_CONTEXT('',#2,'mechanical');
#930 = PRODUCT_DEFINITION_CONTEXT('part definition',#2,'design');
#931 = GEOMETRICALLY_BOUNDED_WIREFRAME_SHAPE_REPRESENTATION('',(#11,#932
    ),#940);
#932 = GEOMETRIC_CURVE_SET('',(#933));
#933 = TRIMMED_CURVE('',#934,(#938,PARAMETER_VALUE(0.)),(#939,
    PARAMETER_VALUE(0.4075)),.T.,.PARAMETER.);
#934 = LINE('',#935,#936);
#935 = CARTESIAN_POINT('',(2.35,0.4075,0.));
#936 = VECTOR('',#937,1.);
#937 = DIRECTION('',(0.,-1.,0.));
#938 = CARTESIAN_POINT('',(2.35,0.4075,0.));
#939 = CARTESIAN_POINT('',(2.35,0.,0.));
#940 = ( GEOMETRIC_REPRESENTATION_CONTEXT(3) 
GLOBAL_UNCERTAINTY_ASSIGNED_CONTEXT((#944)) GLOBAL_UNIT_ASSIGNED_CONTEXT
((#941,#942,#943)) REPRESENTATION_CONTEXT('Context #1',
  '3D Context with UNIT and UNCERTAINTY') );
#941 = ( LENGTH_UNIT() NAMED_UNIT(*) SI_UNIT(.MILLI.,.METRE.) );
#942 = ( NAMED_UNIT(*) PLANE_ANGLE_UNIT() SI_UNIT($,.RADIAN.) );
#943 = ( NAMED_UNIT(*) SI_UNIT($,.STERADIAN.) SOLID_ANGLE_UNIT() );
#944 = UNCERTAINTY_MEASURE_WITH_UNIT(LENGTH_MEASURE(1.E-07),#941,
  'distance_accuracy_value','confusion accuracy');
#945 = CONTEXT_DEPENDENT_SHAPE_REPRESENTATION(#946,#948);
#946 = ( REPRESENTATION_RELATIONSHIP('','',#931,#10) 
REPRESENTATION_RELATIONSHIP_WITH_TRANSFORMATION(#947) 
SHAPE_REPRESENTATION_RELATIONSHIP() );
#947 = ITEM_DEFINED_TRANSFORMATION('','',#11,#19);
#948 = PRODUCT_DEFINITION_SHAPE('Placement','Placement of an item',#949
  );
#949 = NEXT_ASSEMBLY_USAGE_OCCURRENCE('2','','',#5,#926,$);
#950 = PRODUCT_RELATED_PRODUCT_CATEGORY('part',$,(#928));
#951 = SHAPE_DEFINITION_REPRESENTATION(#952,#958);
#952 = PRODUCT_DEFINITION_SHAPE('','',#953);
#953 = PRODUCT_DEFINITION('design','',#954,#957);
#954 = PRODUCT_DEFINITION_FORMATION('','',#955);
#955 = PRODUCT('Open CASCADE STEP translator 7.8 1.3',
  'Open CASCADE STEP translator 7.8 1.3','',(#956));
#956 = PRODUCT_CONTEXT('',#2,'mechanical');
#957 = PRODUCT_DEFINITION_CONTEXT('part definition',#2,'design');
#958 = GEOMETRICALLY_BOUNDED_WIREFRAME_SHAPE_REPRESENTATION('',(#11,#959
    ),#967);
#959 = GEOMETRIC_CURVE_SET('',(#960));
#960 = TRIMMED_CURVE('',#961,(#965,PARAMETER_VALUE(0.)),(#966,
    PARAMETER_VALUE(2.4)),.T.,.PARAMETER.);
#961 = LINE('',#962,#963);
#962 = CARTESIAN_POINT('',(2.35,0.,0.));
#963 = VECTOR('',#964,1.);
#964 = DIRECTION('',(-1.,0.,0.));
#965 = CARTESIAN_POINT('',(2.35,0.,0.));
#966 = CARTESIAN_POINT('',(-5.E-02,0.,0.));
#967 = ( GEOMETRIC_REPRESENTATION_CONTEXT(3) 
GLOBAL_UNCERTAINTY_ASSIGNED_CONTEXT((#971)) GLOBAL_UNIT_ASSIGNED_CONTEXT
((#968,#969,#970)) REPRESENTATION_CONTEXT('Context #1',
  '3D Context with UNIT and UNCERTAINTY') );
#968 = ( LENGTH_UNIT() NAMED_UNIT(*) SI_UNIT(.MILLI.,.METRE.) );
#969 = ( NAMED_UNIT(*) PLANE_ANGLE_UNIT() SI_UNIT($,.RADIAN.) );
#970 = ( NAMED_UNIT(*) SI_UNIT($,.STERADIAN.) SOLID_ANGLE_UNIT() );
#971 = UNCERTAINTY_MEASURE_WITH_UNIT(LENGTH_MEASURE(1.E-07),#968,
  'distance_accuracy_value','confusion accuracy');
#972 = CONTEXT_DEPENDENT_SHAPE_REPRESENTATION(#973,#975);
#973 = ( REPRESENTATION_RELATIONSHIP('','',#958,#10) 
REPRESENTATION_RELATIONSHIP_WITH_TRANSFORMATION(#974) 
SHAPE_REPRESENTATION_RELATIONSHIP() );
#974 = ITEM_DEFINED_TRANSFORMATION('','',#11,#23);
#975 = PRODUCT_DEFINITION_SHAPE('Placement','Placement of an item',#976
  );
#976 = NEXT_ASSEMBLY_USAGE_OCCURRENCE('3','','',#5,#953,$);
#977 = PRODUCT_RELATED_PRODUCT_CATEGORY('part',$,(#955));
#978 = SHAPE_DEFINITION_REPRESENTATION(#979,#985);
#979 = PRODUCT_DEFINITION_SHAPE('','',#980);
#980 = PRODUCT_DEFINITION('design','',#981,#984);
#981 = PRODUCT_DEFINITION_FORMATION('','',#982);
#982 = PRODUCT('Open CASCADE STEP translator 7.8 1.4',
  'Open CASCADE STEP translator 7.8 1.4','',(#983));
#983 = PRODUCT_CONTEXT('',#2,'mechanical');
#984 = PRODUCT_DEFINITION_CONTEXT('part definition',#2,'design');
#985 = GEOMETRICALLY_BOUNDED_WIREFRAME_SHAPE_REPRESENTATION('',(#11,#986
    ),#1243);
#986 = GEOMETRIC_CURVE_SET('',(#987,#988,#989,#990,#991,#992,#993,#994,
    #995,#996,#997,#998,#999,#1000,#1001,#1002,#1003,#1004,#1005,#1006,
    #1007,#1008,#1009,#1010,#1011,#1012,#1013,#1014,#1015,#1016,#1017,
    #1018,#1019,#1020,#1021,#1022,#1023,#1024,#1025,#1026,#1027,#1028,
    #1029,#1030,#1031,#1032,#1033,#1034,#1035,#1036,#1037,#1038,#1039,
    #1040,#1041,#1042,#1043,#1044,#1045,#1046,#1047,#1048,#1049,#1050,
    #1051,#1052,#1053,#1054,#1055,#1056,#1057,#1058,#1059,#1060,#1061,
    #1062,#1063,#1064,#1065,#1066,#1067,#1068,#1069,#1070,#1071,#1072,
    #1073,#1074,#1075,#1076,#1077,#1078,#1079,#1080,#1081,#1082,#1083,
    #1084,#1085,#1086,#1087,#1088,#1089,#1090,#1091,#1092,#1093,#1094,
    #1095,#1096,#1097,#1098,#1099,#1100,#1101,#1102,#1103,#1104,#1105,
    #1106,#1107,#1108,#1109,#1110,#1111,#1112,#1113,#1114,#1115,#1116,
    #1117,#1118,#1119,#1120,#1121,#1122,#1123,#1124,#1125,#1126,#1127,
    #1128,#1129,#1130,#1131,#1132,#1133,#1134,#1135,#1136,#1137,#1138,
    #1139,#1140,#1141,#1142,#1143,#1144,#1145,#1146,#1147,#1148,#1149,
    #1150,#1151,#1152,#1153,#1154,#1155,#1156,#1157,#1158,#1159,#1160,
    #1161,#1162,#1163,#1164,#1165,#1166,#1167,#1168,#1169,#1170,#1171,
    #1172,#1173,#1174,#1175,#1176,#1177,#1178,#1179,#1180,#1181,#1182,
    #1183,#1184,#1185,#1186,#1187,#1188,#1189,#1190,#1191,#1192,#1193,
    #1194,#1195,#1196,#1197,#1198,#1199,#1200,#1201,#1202,#1203,#1204,
    #1205,#1206,#1207,#1208,#1209,#1210,#1211,#1212,#1213,#1214,#1215,
    #1216,#1217,#1218,#1219,#1220,#1221,#1222,#1223,#1224,#1225,#1226,
    #1227,#1228,#1229,#1230,#1231,#1232,#1233,#1234,#1235,#1236,#1237,
    #1238,#1239,#1240,#1241,#1242));
#987 = CARTESIAN_POINT('',(-4.999912059007E-02,1.934314303364E-03,0.));
#988 = CARTESIAN_POINT('',(-4.999608159445E-02,3.881352876813E-03,0.));
#989 = CARTESIAN_POINT('',(-4.999028176098E-02,5.84129602712E-03,0.));
#990 = CARTESIAN_POINT('',(-4.998112046734E-02,7.814290554798E-03,0.));
#991 = CARTESIAN_POINT('',(-4.996799872207E-02,9.800451395609E-03,0.));
#992 = CARTESIAN_POINT('',(-4.995032020347E-02,1.179986325233E-02,0.));
#993 = CARTESIAN_POINT('',(-4.9927492323E-02,1.381258221393E-02,0.));
#994 = CARTESIAN_POINT('',(-4.989892730064E-02,1.583863735964E-02,0.));
#995 = CARTESIAN_POINT('',(-4.986404323999E-02,1.787803234562E-02,0.));
#996 = CARTESIAN_POINT('',(-4.982226519189E-02,1.993074697209E-02,0.));
#997 = CARTESIAN_POINT('',(-4.977302619629E-02,2.199673872886E-02,0.));
#998 = CARTESIAN_POINT('',(-4.971576829249E-02,2.407594431711E-02,0.));
#999 = CARTESIAN_POINT('',(-4.964994348947E-02,2.616828114526E-02,0.));
#1000 = CARTESIAN_POINT('',(-4.957501468838E-02,2.827364879671E-02,0.));
#1001 = CARTESIAN_POINT('',(-4.949045655056E-02,3.039193046712E-02,0.));
#1002 = CARTESIAN_POINT('',(-4.939575630545E-02,3.252299436856E-02,0.));
#1003 = CARTESIAN_POINT('',(-4.929041449351E-02,3.466669509822E-02,0.));
#1004 = CARTESIAN_POINT('',(-4.917394564047E-02,3.682287496878E-02,0.));
#1005 = CARTESIAN_POINT('',(-4.904587886004E-02,3.899136529786E-02,0.));
#1006 = CARTESIAN_POINT('',(-4.890575838315E-02,4.117198765376E-02,0.));
#1007 = CARTESIAN_POINT('',(-4.875314401271E-02,4.336455505487E-02,0.));
#1008 = CARTESIAN_POINT('',(-4.858761150368E-02,4.556887311999E-02,0.));
#1009 = CARTESIAN_POINT('',(-4.840875286897E-02,4.77847411672E-02,0.));
#1010 = CARTESIAN_POINT('',(-4.821617661255E-02,5.001195325894E-02,0.));
#1011 = CARTESIAN_POINT('',(-4.800950789157E-02,5.225029919107E-02,0.));
#1012 = CARTESIAN_POINT('',(-4.778838861019E-02,5.449956542421E-02,0.));
#1013 = CARTESIAN_POINT('',(-4.755247744809E-02,5.675953595568E-02,0.));
#1014 = CARTESIAN_POINT('',(-4.730144982707E-02,5.902999313085E-02,0.));
#1015 = CARTESIAN_POINT('',(-4.703499781983E-02,6.131071839302E-02,0.));
#1016 = CARTESIAN_POINT('',(-4.675283000487E-02,6.36014929712E-02,0.));
#1017 = CARTESIAN_POINT('',(-4.645467127205E-02,6.590209850577E-02,0.));
#1018 = CARTESIAN_POINT('',(-4.614026258336E-02,6.821231761204E-02,0.));
#1019 = CARTESIAN_POINT('',(-4.580936069345E-02,7.053193438249E-02,0.));
#1020 = CARTESIAN_POINT('',(-4.546173783479E-02,7.286073482853E-02,0.));
#1021 = CARTESIAN_POINT('',(-4.509718137191E-02,7.519850726297E-02,0.));
#1022 = CARTESIAN_POINT('',(-4.471549342956E-02,7.754504262506E-02,0.));
#1023 = CARTESIAN_POINT('',(-4.431649049896E-02,7.990013474977E-02,0.));
#1024 = CARTESIAN_POINT('',(-4.390000302677E-02,8.226358058365E-02,0.));
#1025 = CARTESIAN_POINT('',(-4.346587499053E-02,8.463518034962E-02,0.));
#1026 = CARTESIAN_POINT('',(-4.301396346485E-02,8.701473766331E-02,0.));
#1027 = CARTESIAN_POINT('',(-4.254413818153E-02,8.940205960389E-02,0.));
#1028 = CARTESIAN_POINT('',(-4.205628108742E-02,9.179695674212E-02,0.));
#1029 = CARTESIAN_POINT('',(-4.15502859027E-02,9.419924312885E-02,0.));
#1030 = CARTESIAN_POINT('',(-4.102605768266E-02,9.660873624703E-02,0.));
#1031 = CARTESIAN_POINT('',(-4.048351238533E-02,9.902525693032E-02,0.));
#1032 = CARTESIAN_POINT('',(-3.992257644724E-02,0.101448629252,0.));
#1033 = CARTESIAN_POINT('',(-3.934318636912E-02,0.103878680384,0.));
#1034 = CARTESIAN_POINT('',(-3.874528831339E-02,0.10631524044,0.));
#1035 = CARTESIAN_POINT('',(-3.812883771463E-02,0.108758142286,0.));
#1036 = CARTESIAN_POINT('',(-3.74937989043E-02,0.11120722134,0.));
#1037 = CARTESIAN_POINT('',(-3.684014475048E-02,0.113662315359,0.));
#1038 = CARTESIAN_POINT('',(-3.616785631342E-02,0.116123264208,0.));
#1039 = CARTESIAN_POINT('',(-3.547692251731E-02,0.118589909619,0.));
#1040 = CARTESIAN_POINT('',(-3.476733983858E-02,0.121062094946,0.));
#1041 = CARTESIAN_POINT('',(-3.403911201074E-02,0.123539664914,0.));
#1042 = CARTESIAN_POINT('',(-3.32922497459E-02,0.126022465366,0.));
#1043 = CARTESIAN_POINT('',(-3.252677047268E-02,0.128510343001,0.));
#1044 = CARTESIAN_POINT('',(-3.174269809015E-02,0.131003145125,0.));
#1045 = CARTESIAN_POINT('',(-3.094006273767E-02,0.133500719393,0.));
#1046 = CARTESIAN_POINT('',(-3.01189005798E-02,0.136002913564,0.));
#1047 = CARTESIAN_POINT('',(-2.927925360604E-02,0.138509575253,0.));
#1048 = CARTESIAN_POINT('',(-2.842116944464E-02,0.141020551693,0.));
#1049 = CARTESIAN_POINT('',(-2.754470118982E-02,0.143535689506,0.));
#1050 = CARTESIAN_POINT('',(-2.664990724184E-02,0.146054834477,0.));
#1051 = CARTESIAN_POINT('',(-2.573685115905E-02,0.148577831343,0.));
#1052 = CARTESIAN_POINT('',(-2.48056015213E-02,0.151104523585,0.));
#1053 = CARTESIAN_POINT('',(-2.385623180406E-02,0.153634753235,0.));
#1054 = CARTESIAN_POINT('',(-2.288882026223E-02,0.15616836069,0.));
#1055 = CARTESIAN_POINT('',(-2.190344982335E-02,0.158705184541,0.));
#1056 = CARTESIAN_POINT('',(-2.090020798909E-02,0.161245061406,0.));
#1057 = CARTESIAN_POINT('',(-1.987918674458E-02,0.163787825782,0.));
#1058 = CARTESIAN_POINT('',(-1.884048247492E-02,0.166333309902,0.));
#1059 = CARTESIAN_POINT('',(-1.778419588799E-02,0.168881343608,0.));
#1060 = CARTESIAN_POINT('',(-1.671043194328E-02,0.171431754228,0.));
#1061 = CARTESIAN_POINT('',(-1.561929978583E-02,0.173984366474,0.));
#1062 = CARTESIAN_POINT('',(-1.451091268495E-02,0.176539002344,0.));
#1063 = CARTESIAN_POINT('',(-1.338538797708E-02,0.179095481033,0.));
#1064 = CARTESIAN_POINT('',(-1.224284701232E-02,0.181653618863,0.));
#1065 = CARTESIAN_POINT('',(-1.108341510413E-02,0.184213229214,0.));
#1066 = CARTESIAN_POINT('',(-9.907221481791E-03,0.18677412247,0.));
#1067 = CARTESIAN_POINT('',(-8.714399245267E-03,0.189336105977,0.));
#1068 = CARTESIAN_POINT('',(-7.505085321957E-03,0.191898984,0.));
#1069 = CARTESIAN_POINT('',(-6.279420425115E-03,0.194462557704,0.));
#1070 = CARTESIAN_POINT('',(-5.037549013545E-03,0.197026625129,0.));
#1071 = CARTESIAN_POINT('',(-3.779619252295E-03,0.199590981185,0.));
#1072 = CARTESIAN_POINT('',(-2.505782974082E-03,0.202155417649,0.));
#1073 = CARTESIAN_POINT('',(-1.216195641185E-03,0.204719723169,0.));
#1074 = CARTESIAN_POINT('',(8.898369240778E-05,0.207283683281,0.));
#1075 = CARTESIAN_POINT('',(1.409592418797E-03,0.209847080426,0.));
#1076 = CARTESIAN_POINT('',(2.745464414118E-03,0.212409693979,0.));
#1077 = CARTESIAN_POINT('',(4.096430076773E-03,0.214971300282,0.));
#1078 = CARTESIAN_POINT('',(5.462316366126E-03,0.217531672684,0.));
#1079 = CARTESIAN_POINT('',(6.842946841766E-03,0.220090581588,0.));
#1080 = CARTESIAN_POINT('',(8.238141703466E-03,0.222647794498,0.));
#1081 = CARTESIAN_POINT('',(9.647717831944E-03,0.225203076078,0.));
#1082 = CARTESIAN_POINT('',(1.107148883051E-02,0.227756188215,0.));
#1083 = CARTESIAN_POINT('',(1.250926506765E-02,0.230306890078,0.));
#1084 = CARTESIAN_POINT('',(1.396085372069E-02,0.232854938195,0.));
#1085 = CARTESIAN_POINT('',(1.542605882052E-02,0.235400086523,0.));
#1086 = CARTESIAN_POINT('',(1.69046812974E-02,0.237942086529,0.));
#1087 = CARTESIAN_POINT('',(1.839651902805E-02,0.240480687268,0.));
#1088 = CARTESIAN_POINT('',(1.990136688384E-02,0.24301563547,0.));
#1089 = CARTESIAN_POINT('',(2.141901678027E-02,0.24554667563,0.));
#1090 = CARTESIAN_POINT('',(2.29492577277E-02,0.248073550096,0.));
#1091 = CARTESIAN_POINT('',(2.449187588331E-02,0.250595999165,0.));
#1092 = CARTESIAN_POINT('',(2.604665460438E-02,0.253113761178,0.));
#1093 = CARTESIAN_POINT('',(2.761337450284E-02,0.255626572623,0.));
#1094 = CARTESIAN_POINT('',(2.919181350108E-02,0.258134168232,0.));
#1095 = CARTESIAN_POINT('',(3.078174688908E-02,0.260636281085,0.));
#1096 = CARTESIAN_POINT('',(3.238294738282E-02,0.263132642721,0.));
#1097 = CARTESIAN_POINT('',(3.399518518397E-02,0.265622983236,0.));
#1098 = CARTESIAN_POINT('',(3.561822804082E-02,0.2681070314,0.));
#1099 = CARTESIAN_POINT('',(3.725184131053E-02,0.270584514765,0.));
#1100 = CARTESIAN_POINT('',(3.88957880226E-02,0.273055159777,0.));
#1101 = CARTESIAN_POINT('',(4.054982894357E-02,0.275518691887,0.));
#1102 = CARTESIAN_POINT('',(4.221372264303E-02,0.277974835669,0.));
#1103 = CARTESIAN_POINT('',(4.388722556077E-02,0.280423314937,0.));
#1104 = CARTESIAN_POINT('',(4.557009207519E-02,0.282863852857,0.));
#1105 = CARTESIAN_POINT('',(4.726207457289E-02,0.285296172067,0.));
#1106 = CARTESIAN_POINT('',(4.896292351951E-02,0.287719994796,0.));
#1107 = CARTESIAN_POINT('',(5.067238753165E-02,0.290135042986,0.));
#1108 = CARTESIAN_POINT('',(5.239021345007E-02,0.292541038405,0.));
#1109 = CARTESIAN_POINT('',(5.411614641395E-02,0.294937702776,0.));
#1110 = CARTESIAN_POINT('',(5.584992993643E-02,0.297324757892,0.));
#1111 = CARTESIAN_POINT('',(5.759130598115E-02,0.299701925741,0.));
#1112 = CARTESIAN_POINT('',(5.934001504004E-02,0.302068928628,0.));
#1113 = CARTESIAN_POINT('',(6.109579621222E-02,0.304425489295,0.));
#1114 = CARTESIAN_POINT('',(6.285838728397E-02,0.306771331049,0.));
#1115 = CARTESIAN_POINT('',(6.462752480993E-02,0.30910617788,0.));
#1116 = CARTESIAN_POINT('',(6.640294419531E-02,0.311429754587,0.));
#1117 = CARTESIAN_POINT('',(6.818437977929E-02,0.313741786902,0.));
#1118 = CARTESIAN_POINT('',(6.997156491955E-02,0.316042001613,0.));
#1119 = CARTESIAN_POINT('',(7.176423207788E-02,0.318330126687,0.));
#1120 = CARTESIAN_POINT('',(7.35621129069E-02,0.320605891396,0.));
#1121 = CARTESIAN_POINT('',(7.536493833801E-02,0.322869026437,0.));
#1122 = CARTESIAN_POINT('',(7.717243867035E-02,0.325119264062,0.));
#1123 = CARTESIAN_POINT('',(7.898434366094E-02,0.327356338195,0.));
#1124 = CARTESIAN_POINT('',(8.080038261605E-02,0.329579984559,0.));
#1125 = CARTESIAN_POINT('',(8.262028448359E-02,0.331789940801,0.));
#1126 = CARTESIAN_POINT('',(8.444377794675E-02,0.333985946609,0.));
#1127 = CARTESIAN_POINT('',(8.627059151882E-02,0.336167743843,0.));
#1128 = CARTESIAN_POINT('',(8.810045363916E-02,0.338335076651,0.));
#1129 = CARTESIAN_POINT('',(8.99330927704E-02,0.340487691596,0.));
#1130 = CARTESIAN_POINT('',(9.176823749688E-02,0.342625337772,0.));
#1131 = CARTESIAN_POINT('',(9.360561662424E-02,0.344747766932,0.));
#1132 = CARTESIAN_POINT('',(9.544495928042E-02,0.346854733606,0.));
#1133 = CARTESIAN_POINT('',(9.728599501774E-02,0.34894599522,0.));
#1134 = CARTESIAN_POINT('',(9.912845391645E-02,0.351021312216,0.));
#1135 = CARTESIAN_POINT('',(0.100972066689,0.353080448176,0.));
#1136 = CARTESIAN_POINT('',(0.102816564789,0.355123169935,0.));
#1137 = CARTESIAN_POINT('',(0.104661680512,0.357149247698,0.));
#1138 = CARTESIAN_POINT('',(0.106507147112,0.359158455165,0.));
#1139 = CARTESIAN_POINT('',(0.108352698908,0.361150569637,0.));
#1140 = CARTESIAN_POINT('',(0.110198071395,0.363125372138,0.));
#1141 = CARTESIAN_POINT('',(0.112043001359,0.365082647527,0.));
#1142 = CARTESIAN_POINT('',(0.11388722699,0.367022184611,0.));
#1143 = CARTESIAN_POINT('',(0.115730488,0.368943776257,0.));
#1144 = CARTESIAN_POINT('',(0.117572525739,0.370847219503,0.));
#1145 = CARTESIAN_POINT('',(0.119413083314,0.372732315667,0.));
#1146 = CARTESIAN_POINT('',(0.12125190571,0.374598870455,0.));
#1147 = CARTESIAN_POINT('',(0.123088739914,0.376446694069,0.));
#1148 = CARTESIAN_POINT('',(0.124923335036,0.378275601307,0.));
#1149 = CARTESIAN_POINT('',(0.126755442437,0.380085411675,0.));
#1150 = CARTESIAN_POINT('',(0.128584815855,0.381875949477,0.));
#1151 = CARTESIAN_POINT('',(0.130411211531,0.383647043923,0.));
#1152 = CARTESIAN_POINT('',(0.132234388345,0.385398529222,0.));
#1153 = CARTESIAN_POINT('',(0.134054107944,0.387130244679,0.));
#1154 = CARTESIAN_POINT('',(0.135870134876,0.388842034783,0.));
#1155 = CARTESIAN_POINT('',(0.137682236725,0.390533749303,0.));
#1156 = CARTESIAN_POINT('',(0.139490184249,0.39220524337,0.));
#1157 = CARTESIAN_POINT('',(0.141293751518,0.393856377563,0.));
#1158 = CARTESIAN_POINT('',(0.143092716051,0.395487017988,0.));
#1159 = CARTESIAN_POINT('',(0.144886858961,0.397097036357,0.));
#1160 = CARTESIAN_POINT('',(0.146675965096,0.398686310064,0.));
#1161 = CARTESIAN_POINT('',(0.148459823181,0.400254722248,0.));
#1162 = CARTESIAN_POINT('',(0.150238225967,0.401802161864,0.));
#1163 = CARTESIAN_POINT('',(0.152010970373,0.403328523745,0.));
#1164 = CARTESIAN_POINT('',(0.153777857634,0.404833708655,0.));
#1165 = CARTESIAN_POINT('',(0.15553869345,0.406317623339,0.));
#1166 = CARTESIAN_POINT('',(0.157293288135,0.407780180578,0.));
#1167 = CARTESIAN_POINT('',(0.15904145676,0.409221299218,0.));
#1168 = CARTESIAN_POINT('',(0.16078301931,0.410640904212,0.));
#1169 = CARTESIAN_POINT('',(0.162517800825,0.412038926646,0.));
#1170 = CARTESIAN_POINT('',(0.16424563155,0.413415303758,0.));
#1171 = CARTESIAN_POINT('',(0.165966347085,0.414769978953,0.));
#1172 = CARTESIAN_POINT('',(0.167679788525,0.416102901812,0.));
#1173 = CARTESIAN_POINT('',(0.169385802605,0.417414028083,0.));
#1174 = CARTESIAN_POINT('',(0.171084241844,0.418703319675,0.));
#1175 = CARTESIAN_POINT('',(0.172774964675,0.419970744636,0.));
#1176 = CARTESIAN_POINT('',(0.174457835588,0.421216277123,0.));
#1177 = CARTESIAN_POINT('',(0.176132725248,0.422439897361,0.));
#1178 = CARTESIAN_POINT('',(0.177799510625,0.423641591594,0.));
#1179 = CARTESIAN_POINT('',(0.17945807511,0.424821352016,0.));
#1180 = CARTESIAN_POINT('',(0.181108308616,0.425979176705,0.));
#1181 = CARTESIAN_POINT('',(0.182750107682,0.427115069526,0.));
#1182 = CARTESIAN_POINT('',(0.184383375558,0.428229040035,0.));
#1183 = CARTESIAN_POINT('',(0.186008022282,0.429321103366,0.));
#1184 = CARTESIAN_POINT('',(0.187623964736,0.430391280094,0.));
#1185 = CARTESIAN_POINT('',(0.18923112669,0.431439596097,0.));
#1186 = CARTESIAN_POINT('',(0.190829438829,0.432466082392,0.));
#1187 = CARTESIAN_POINT('',(0.192418838753,0.433470774959,0.));
#1188 = CARTESIAN_POINT('',(0.193999270954,0.434453714548,0.));
#1189 = CARTESIAN_POINT('',(0.195570686766,0.435414946466,0.));
#1190 = CARTESIAN_POINT('',(0.197133044284,0.436354520352,0.));
#1191 = CARTESIAN_POINT('',(0.198686308246,0.437272489929,0.));
#1192 = CARTESIAN_POINT('',(0.200230449875,0.438168912737,0.));
#1193 = CARTESIAN_POINT('',(0.201765446671,0.439043849858,0.));
#1194 = CARTESIAN_POINT('',(0.203291282164,0.43989736561,0.));
#1195 = CARTESIAN_POINT('',(0.204807945596,0.440729527235,0.));
#1196 = CARTESIAN_POINT('',(0.20631543155,0.441540404562,0.));
#1197 = CARTESIAN_POINT('',(0.207813739497,0.44233006966,0.));
#1198 = CARTESIAN_POINT('',(0.209302873273,0.443098596479,0.));
#1199 = CARTESIAN_POINT('',(0.210782840454,0.443846060468,0.));
#1200 = CARTESIAN_POINT('',(0.212253651644,0.444572538197,0.));
#1201 = CARTESIAN_POINT('',(0.213715319637,0.445278106964,0.));
#1202 = CARTESIAN_POINT('',(0.215167858464,0.445962844401,0.));
#1203 = CARTESIAN_POINT('',(0.216611282289,0.446626828081,0.));
#1204 = CARTESIAN_POINT('',(0.218045604159,0.447270135131,0.));
#1205 = CARTESIAN_POINT('',(0.219470834565,0.447892841863,0.));
#1206 = CARTESIAN_POINT('',(0.22088697982,0.448495023419,0.));
#1207 = CARTESIAN_POINT('',(0.222294040201,0.449076753454,0.));
#1208 = CARTESIAN_POINT('',(0.223692007859,0.449638103851,0.));
#1209 = CARTESIAN_POINT('',(0.225080864438,0.450179144495,0.));
#1210 = CARTESIAN_POINT('',(0.226460578387,0.450699943117,0.));
#1211 = CARTESIAN_POINT('',(0.22783110192,0.451200565214,0.));
#1212 = CARTESIAN_POINT('',(0.229192367573,0.451681074083,0.));
#1213 = CARTESIAN_POINT('',(0.230544284306,0.452141530972,0.));
#1214 = CARTESIAN_POINT('',(0.231886733098,0.452581995394,0.));
#1215 = CARTESIAN_POINT('',(0.233219561935,0.453002525613,0.));
#1216 = CARTESIAN_POINT('',(0.234542580135,0.453403179351,0.));
#1217 = CARTESIAN_POINT('',(0.235855551873,0.453784014753,0.));
#1218 = CARTESIAN_POINT('',(0.237158188799,0.454145091646,0.));
#1219 = CARTESIAN_POINT('',(0.238450141576,0.454486473153,0.));
#1220 = CARTESIAN_POINT('',(0.239730990159,0.454808227718,0.));
#1221 = CARTESIAN_POINT('',(0.241000232554,0.455110431605,0.));
#1222 = CARTESIAN_POINT('',(0.242257271781,0.455393171959,0.));
#1223 = CARTESIAN_POINT('',(0.243501400621,0.4556565505,0.));
#1224 = CARTESIAN_POINT('',(0.244731783697,0.455900687978,0.));
#1225 = CARTESIAN_POINT('',(0.245947436215,0.456125729488,0.));
#1226 = CARTESIAN_POINT('',(0.247147198577,0.456331850788,0.));
#1227 = CARTESIAN_POINT('',(0.248329705748,0.456519265786,0.));
#1228 = CARTESIAN_POINT('',(0.249493349964,0.456688235372,0.));
#1229 = CARTESIAN_POINT('',(0.250636234829,0.456839077808,0.));
#1230 = CARTESIAN_POINT('',(0.251756118193,0.456972180915,0.));
#1231 = CARTESIAN_POINT('',(0.252850340228,0.457088016316,0.));
#1232 = CARTESIAN_POINT('',(0.25391573171,0.457187155996,0.));
#1233 = CARTESIAN_POINT('',(0.25494849553,0.457270291429,0.));
#1234 = CARTESIAN_POINT('',(0.255944051491,0.4573382554,0.));
#1235 = CARTESIAN_POINT('',(0.25689682998,0.457392046418,0.));
#1236 = CARTESIAN_POINT('',(0.257799993411,0.457432855029,0.));
#1237 = CARTESIAN_POINT('',(0.258645053839,0.457462090177,0.));
#1238 = CARTESIAN_POINT('',(0.259421338568,0.457481401325,0.));
#1239 = CARTESIAN_POINT('',(0.260115228787,0.457492687091,0.));
#1240 = CARTESIAN_POINT('',(0.260709051765,0.457498070912,0.));
#1241 = CARTESIAN_POINT('',(0.261179431451,0.457499802786,0.));
#1242 = CARTESIAN_POINT('',(2.3,0.4075,0.));
#1243 = ( GEOMETRIC_REPRESENTATION_CONTEXT(3) 
GLOBAL_UNCERTAINTY_ASSIGNED_CONTEXT((#1247)) 
GLOBAL_UNIT_ASSIGNED_CONTEXT((#1244,#1245,#1246)) REPRESENTATION_CONTEXT
('Context #1','3D Context with UNIT and UNCERTAINTY') );
#1244 = ( LENGTH_UNIT() NAMED_UNIT(*) SI_UNIT(.MILLI.,.METRE.) );
#1245 = ( NAMED_UNIT(*) PLANE_ANGLE_UNIT() SI_UNIT($,.RADIAN.) );
#1246 = ( NAMED_UNIT(*) SI_UNIT($,.STERADIAN.) SOLID_ANGLE_UNIT() );
#1247 = UNCERTAINTY_MEASURE_WITH_UNIT(LENGTH_MEASURE(1.E-07),#1244,
  'distance_accuracy_value','confusion accuracy');
#1248 = CONTEXT_DEPENDENT_SHAPE_REPRESENTATION(#1249,#1251);
#1249 = ( REPRESENTATION_RELATIONSHIP('','',#985,#10) 
REPRESENTATION_RELATIONSHIP_WITH_TRANSFORMATION(#1250) 
SHAPE_REPRESENTATION_RELATIONSHIP() );
#1250 = ITEM_DEFINED_TRANSFORMATION('','',#11,#27);
#1251 = PRODUCT_DEFINITION_SHAPE('Placement','Placement of an item',
  #1252);
#1252 = NEXT_ASSEMBLY_USAGE_OCCURRENCE('4','','',#5,#980,$);
#1253 = PRODUCT_RELATED_PRODUCT_CATEGORY('part',$,(#982));
ENDSEC;
END-ISO-10303-21;
