ISO-10303-21;
HEADER;
FILE_NAME('Open CASCADE Shape Model','2026-09-30T13:04:06',('Author'),(
    'Open CASCADE'),'Open CASCADE STEP processor 7.8','Open CASCADE 7.8'
  ,'Unknown');
FILE_DESCRIPTION(('Open CASCADE Model'),'2;1');
FILE_SCHEMA(('AUTOMOTIVE_DESIGN { 1 0 10303 214 1 1 1 1 }'));
ENDSEC;
DATA;
#1 = APPLICATION_PROTOCOL_DEFINITION('international standard',
  'automotive_design',2000,#2);
#2 = APPLICATION_CONTEXT(
  'core data for automotive mechanical design processes');
#3 = SHAPE_DEFINITION_REPRESENTATION(#4,#10);
#4 = PRODUCT_DEFINITION_SHAPE('','',#5);
#5 = PRODUCT_DEFINITION('design','',#6,#9);
#6 = PRODUCT_DEFINITION_FORMATION('','',#7);
#7 = PRODUCT('Open CASCADE STEP translator 7.8 1',
  'Open CASCADE STEP translator 7.8 1','',(#8));
#8 = PRODUCT_CONTEXT('',#2,'mechanical');
#9 = PRODUCT_DEFINITION_CONTEXT('part definition',#2,'design');
#10 = SHAPE_REPRESENTATION('',(#11,#15,#19),#23);
#11 = AXIS2_PLACEMENT_3D('',#12,#13,#14);
#12 = CARTESIAN_POINT('',(0.,0.,0.));
#13 = DIRECTION('',(0.,0.,1.));
#14 = DIRECTION('',(1.,0.,-0.));
#15 = AXIS2_PLACEMENT_3D('',#16,#17,#18);
#16 = CARTESIAN_POINT('',(0.,0.,0.));
#17 = DIRECTION('',(0.,0.,1.));
#18 = DIRECTION('',(1.,0.,-0.));
#19 = AXIS2_PLACEMENT_3D('',#20,#21,#22);
#20 = CARTESIAN_POINT('',(0.,0.,0.));
#21 = DIRECTION('',(0.,0.,1.));
#22 = DIRECTION('',(1.,0.,-0.));
#23 = ( GEOMETRIC_REPRESENTATION_CONTEXT(3) 
GLOBAL_UNCERTAINTY_ASSIGNED_CONTEXT((#27)) GLOBAL_UNIT_ASSIGNED_CONTEXT(
(#24,#25,#26)) REPRESENTATION_CONTEXT('Context #1',
  '3D Context with UNIT and UNCERTAINTY') );
#24 = ( LENGTH_UNIT() NAMED_UNIT(*) SI_UNIT(.MILLI.,.METRE.) );
#25 = ( NAMED_UNIT(*) PLANE_ANGLE_UNIT() SI_UNIT($,.RADIAN.) );
#26 = ( NAMED_UNIT(*) SI_UNIT($,.STERADIAN.) SOLID_ANGLE_UNIT() );
#27 = UNCERTAINTY_MEASURE_WITH_UNIT(LENGTH_MEASURE(1.E-07),#24,
  'distance_accuracy_value','confusion accuracy');
#28 = PRODUCT_RELATED_PRODUCT_CATEGORY('part',$,(#7));
#29 = SHAPE_DEFINITION_REPRESENTATION(#30,#36);
#30 = PRODUCT_DEFINITION_SHAPE('','',#31);
#31 = PRODUCT_DEFINITION('design','',#32,#35);
#32 = PRODUCT_DEFINITION_FORMATION('','',#33);
#33 = PRODUCT('Open CASCADE STEP translator 7.8 1.1',
  'Open CASCADE STEP translator 7.8 1.1','',(#34));
#34 = PRODUCT_CONTEXT('',#2,'mechanical');
#35 = PRODUCT_DEFINITION_CONTEXT('part definition',#2,'design');
#36 = ADVANCED_BREP_SHAPE_REPRESENTATION('',(#11,#37),#212);
#37 = MANIFOLD_SOLID_BREP('',#38);
#38 = CLOSED_SHELL('',(#39,#153,#208));
#39 = ADVANCED_FACE('',(#40),#57,.T.);
#40 = FACE_BOUND('',#41,.T.);
#41 = EDGE_LOOP('',(#42,#125,#152));
#42 = ORIENTED_EDGE('',*,*,#43,.T.);
#43 = EDGE_CURVE('',#44,#46,#48,.T.);
#44 = VERTEX_POINT('',#45);
#45 = CARTESIAN_POINT('',(0.,0.,0.));
#46 = VERTEX_POINT('',#47);
#47 = CARTESIAN_POINT('',(0.26149477,0.4075,0.));
#48 = SEAM_CURVE('',#49,(#56,#96),.PCURVE_S1.);
#49 = B_SPLINE_CURVE_WITH_KNOTS('',5,(#50,#51,#52,#53,#54,#55),
  .UNSPECIFIED.,.F.,.F.,(6,6),(0.,1.),.PIECEWISE_BEZIER_KNOTS.);
#50 = CARTESIAN_POINT('',(0.,0.,0.));
#51 = CARTESIAN_POINT('',(0.,9.664525E-02,0.));
#52 = CARTESIAN_POINT('',(5.E-03,0.18497527,0.));
#53 = CARTESIAN_POINT('',(0.17271875,0.4075,0.));
#54 = CARTESIAN_POINT('',(0.25,0.4075,0.));
#55 = CARTESIAN_POINT('',(0.26149477,0.4075,0.));
#56 = PCURVE('',#57,#68);
#57 = SURFACE_OF_REVOLUTION('',#58,#65);
#58 = B_SPLINE_CURVE_WITH_KNOTS('',5,(#59,#60,#61,#62,#63,#64),
  .UNSPECIFIED.,.F.,.F.,(6,6),(0.,1.),.PIECEWISE_BEZIER_KNOTS.);
#59 = CARTESIAN_POINT('',(0.,0.,0.));
#60 = CARTESIAN_POINT('',(0.,9.664525E-02,0.));
#61 = CARTESIAN_POINT('',(5.E-03,0.18497527,0.));
#62 = CARTESIAN_POINT('',(0.17271875,0.4075,0.));
#63 = CARTESIAN_POINT('',(0.25,0.4075,0.));
#64 = CARTESIAN_POINT('',(0.26149477,0.4075,0.));
#65 = AXIS1_PLACEMENT('',#66,#67);
#66 = CARTESIAN_POINT('',(0.,0.,0.));
#67 = DIRECTION('',(1.,0.,0.));
#68 = DEFINITIONAL_REPRESENTATION('',(#69),#95);
#69 = B_SPLINE_CURVE_WITH_KNOTS('',3,(#70,#71,#72,#73,#74,#75,#76,#77,
    #78,#79,#80,#81,#82,#83,#84,#85,#86,#87,#88,#89,#90,#91,#92,#93,#94)
  ,.UNSPECIFIED.,.F.,.F.,(4,1,1,1,1,1,1,1,1,1,1,1,1,1,1,1,1,1,1,1,1,1,4)
  ,(0.,4.545454545455E-02,9.090909090909E-02,0.136363636364,
    0.181818181818,0.227272727273,0.272727272727,0.318181818182,
    0.363636363636,0.409090909091,0.454545454545,0.5,0.545454545455,
    0.590909090909,0.636363636364,0.681818181818,0.727272727273,
    0.772727272727,0.818181818182,0.863636363636,0.909090909091,
    0.954545454545,1.),.QUASI_UNIFORM_KNOTS.);
#70 = CARTESIAN_POINT('',(6.28318530718,0.));
#71 = CARTESIAN_POINT('',(6.28318530718,1.515151515152E-02));
#72 = CARTESIAN_POINT('',(6.28318530718,4.545454545455E-02));
#73 = CARTESIAN_POINT('',(6.28318530718,9.090909090909E-02));
#74 = CARTESIAN_POINT('',(6.28318530718,0.136363636364));
#75 = CARTESIAN_POINT('',(6.28318530718,0.181818181818));
#76 = CARTESIAN_POINT('',(6.28318530718,0.227272727273));
#77 = CARTESIAN_POINT('',(6.28318530718,0.272727272727));
#78 = CARTESIAN_POINT('',(6.28318530718,0.318181818182));
#79 = CARTESIAN_POINT('',(6.28318530718,0.363636363636));
#80 = CARTESIAN_POINT('',(6.28318530718,0.409090909091));
#81 = CARTESIAN_POINT('',(6.28318530718,0.454545454545));
#82 = CARTESIAN_POINT('',(6.28318530718,0.5));
#83 = CARTESIAN_POINT('',(6.28318530718,0.545454545455));
#84 = CARTESIAN_POINT('',(6.28318530718,0.590909090909));
#85 = CARTESIAN_POINT('',(6.28318530718,0.636363636364));
#86 = CARTESIAN_POINT('',(6.28318530718,0.681818181818));
#87 = CARTESIAN_POINT('',(6.28318530718,0.727272727273));
#88 = CARTESIAN_POINT('',(6.28318530718,0.772727272727));
#89 = CARTESIAN_POINT('',(6.28318530718,0.818181818182));
#90 = CARTESIAN_POINT('',(6.28318530718,0.863636363636));
#91 = CARTESIAN_POINT('',(6.28318530718,0.909090909091));
#92 = CARTESIAN_POINT('',(6.28318530718,0.954545454545));
#93 = CARTESIAN_POINT('',(6.28318530718,0.984848484848));
#94 = CARTESIAN_POINT('',(6.28318530718,1.));
#95 = ( GEOMETRIC_REPRESENTATION_CONTEXT(2) 
PARAMETRIC_REPRESENTATION_CONTEXT() REPRESENTATION_CONTEXT('2D SPACE',''
  ) );
#96 = PCURVE('',#57,#97);
#97 = DEFINITIONAL_REPRESENTATION('',(#98),#124);
#98 = B_SPLINE_CURVE_WITH_KNOTS('',3,(#99,#100,#101,#102,#103,#104,#105,
    #106,#107,#108,#109,#110,#111,#112,#113,#114,#115,#116,#117,#118,
    #119,#120,#121,#122,#123),.UNSPECIFIED.,.F.,.F.,(4,1,1,1,1,1,1,1,1,1
    ,1,1,1,1,1,1,1,1,1,1,1,1,4),(0.,4.545454545455E-02,
    9.090909090909E-02,0.136363636364,0.181818181818,0.227272727273,
    0.272727272727,0.318181818182,0.363636363636,0.409090909091,
    0.454545454545,0.5,0.545454545455,0.590909090909,0.636363636364,
    0.681818181818,0.727272727273,0.772727272727,0.818181818182,
    0.863636363636,0.909090909091,0.954545454545,1.),
  .QUASI_UNIFORM_KNOTS.);
#99 = CARTESIAN_POINT('',(0.,0.));
#100 = CARTESIAN_POINT('',(0.,1.515151515152E-02));
#101 = CARTESIAN_POINT('',(0.,4.545454545455E-02));
#102 = CARTESIAN_POINT('',(0.,9.090909090909E-02));
#103 = CARTESIAN_POINT('',(0.,0.136363636364));
#104 = CARTESIAN_POINT('',(0.,0.181818181818));
#105 = CARTESIAN_POINT('',(0.,0.227272727273));
#106 = CARTESIAN_POINT('',(0.,0.272727272727));
#107 = CARTESIAN_POINT('',(0.,0.318181818182));
#108 = CARTESIAN_POINT('',(0.,0.363636363636));
#109 = CARTESIAN_POINT('',(0.,0.409090909091));
#110 = CARTESIAN_POINT('',(0.,0.454545454545));
#111 = CARTESIAN_POINT('',(0.,0.5));
#112 = CARTESIAN_POINT('',(0.,0.545454545455));
#113 = CARTESIAN_POINT('',(0.,0.590909090909));
#114 = CARTESIAN_POINT('',(0.,0.636363636364));
#115 = CARTESIAN_POINT('',(0.,0.681818181818));
#116 = CARTESIAN_POINT('',(0.,0.727272727273));
#117 = CARTESIAN_POINT('',(0.,0.772727272727));
#118 = CARTESIAN_POINT('',(0.,0.818181818182));
#119 = CARTESIAN_POINT('',(0.,0.863636363636));
#120 = CARTESIAN_POINT('',(0.,0.909090909091));
#121 = CARTESIAN_POINT('',(0.,0.954545454545));
#122 = CARTESIAN_POINT('',(0.,0.984848484848));
#123 = CARTESIAN_POINT('',(0.,1.));
#124 = ( GEOMETRIC_REPRESENTATION_CONTEXT(2) 
PARAMETRIC_REPRESENTATION_CONTEXT() REPRESENTATION_CONTEXT('2D SPACE',''
  ) );
#125 = ORIENTED_EDGE('',*,*,#126,.F.);
#126 = EDGE_CURVE('',#46,#46,#127,.T.);
#127 = SURFACE_CURVE('',#128,(#133,#140),.PCURVE_S1.);
#128 = CIRCLE('',#129,0.4075);
#129 = AXIS2_PLACEMENT_3D('',#130,#131,#132);
#130 = CARTESIAN_POINT('',(0.26149477,0.,0.));
#131 = DIRECTION('',(1.,0.,0.));
#132 = DIRECTION('',(-0.,1.,0.));
#133 = PCURVE('',#57,#134);
#134 = DEFINITIONAL_REPRESENTATION('',(#135),#139);
#135 = LINE('',#136,#137);
#136 = CARTESIAN_POINT('',(0.,1.));
#137 = VECTOR('',#138,1.);
#138 = DIRECTION('',(1.,0.));
#139 = ( GEOMETRIC_REPRESENTATION_CONTEXT(2) 
PARAMETRIC_REPRESENTATION_CONTEXT() REPRESENTATION_CONTEXT('2D SPACE',''
  ) );
#140 = PCURVE('',#141,#146);
#141 = CYLINDRICAL_SURFACE('',#142,0.4075);
#142 = AXIS2_PLACEMENT_3D('',#143,#144,#145);
#143 = CARTESIAN_POINT('',(0.26149477,0.,0.));
#144 = DIRECTION('',(1.,0.,0.));
#145 = DIRECTION('',(-0.,1.,0.));
#146 = DEFINITIONAL_REPRESENTATION('',(#147),#151);
#147 = LINE('',#148,#149);
#148 = CARTESIAN_POINT('',(0.,0.));
#149 = VECTOR('',#150,1.);
#150 = DIRECTION('',(1.,0.));
#151 = ( GEOMETRIC_REPRESENTATION_CONTEXT(2) 
PARAMETRIC_REPRESENTATION_CONTEXT() REPRESENTATION_CONTEXT('2D SPACE',''
  ) );
#152 = ORIENTED_EDGE('',*,*,#43,.F.);
#153 = ADVANCED_FACE('',(#154),#141,.T.);
#154 = FACE_BOUND('',#155,.T.);
#155 = EDGE_LOOP('',(#156,#157,#180,#207));
#156 = ORIENTED_EDGE('',*,*,#126,.T.);
#157 = ORIENTED_EDGE('',*,*,#158,.T.);
#158 = EDGE_CURVE('',#46,#159,#161,.T.);
#159 = VERTEX_POINT('',#160);
#160 = CARTESIAN_POINT('',(2.3,0.4075,0.));
#161 = SEAM_CURVE('',#162,(#166,#173),.PCURVE_S1.);
#162 = LINE('',#163,#164);
#163 = CARTESIAN_POINT('',(0.26149477,0.4075,0.));
#164 = VECTOR('',#165,1.);
#165 = DIRECTION('',(1.,0.,0.));
#166 = PCURVE('',#141,#167);
#167 = DEFINITIONAL_REPRESENTATION('',(#168),#172);
#168 = LINE('',#169,#170);
#169 = CARTESIAN_POINT('',(6.28318530718,0.));
#170 = VECTOR('',#171,1.);
#171 = DIRECTION('',(0.,1.));
#172 = ( GEOMETRIC_REPRESENTATION_CONTEXT(2) 
PARAMETRIC_REPRESENTATION_CONTEXT() REPRESENTATION_CONTEXT('2D SPACE',''
  ) );
#173 = PCURVE('',#141,#174);
#174 = DEFINITIONAL_REPRESENTATION('',(#175),#179);
#175 = LINE('',#176,#177);
#176 = CARTESIAN_POINT('',(0.,0.));
#177 = VECTOR('',#178,1.);
#178 = DIRECTION('',(0.,1.));
#179 = ( GEOMETRIC_REPRESENTATION_CONTEXT(2) 
PARAMETRIC_REPRESENTATION_CONTEXT() REPRESENTATION_CONTEXT('2D SPACE',''
  ) );
#180 = ORIENTED_EDGE('',*,*,#181,.F.);
#181 = EDGE_CURVE('',#159,#159,#182,.T.);
#182 = SURFACE_CURVE('',#183,(#188,#195),.PCURVE_S1.);
#183 = CIRCLE('',#184,0.4075);
#184 = AXIS2_PLACEMENT_3D('',#185,#186,#187);
#185 = CARTESIAN_POINT('',(2.3,0.,0.));
#186 = DIRECTION('',(1.,0.,0.));
#187 = DIRECTION('',(-0.,1.,0.));
#188 = PCURVE('',#141,#189);
#189 = DEFINITIONAL_REPRESENTATION('',(#190),#194);
#190 = LINE('',#191,#192);
#191 = CARTESIAN_POINT('',(0.,2.03850523));
#192 = VECTOR('',#193,1.);
#193 = DIRECTION('',(1.,0.));
#194 = ( GEOMETRIC_REPRESENTATION_CONTEXT(2) 
PARAMETRIC_REPRESENTATION_CONTEXT() REPRESENTATION_CONTEXT('2D SPACE',''
  ) );
#195 = PCURVE('',#196,#201);
#196 = PLANE('',#197);
#197 = AXIS2_PLACEMENT_3D('',#198,#199,#200);
#198 = CARTESIAN_POINT('',(2.3,0.,0.));
#199 = DIRECTION('',(1.,0.,0.));
#200 = DIRECTION('',(-0.,1.,0.));
#201 = DEFINITIONAL_REPRESENTATION('',(#202),#206);
#202 = CIRCLE('',#203,0.4075);
#203 = AXIS2_PLACEMENT_2D('',#204,#205);
#204 = CARTESIAN_POINT('',(0.,0.));
#205 = DIRECTION('',(1.,0.));
#206 = ( GEOMETRIC_REPRESENTATION_CONTEXT(2) 
PARAMETRIC_REPRESENTATION_CONTEXT() REPRESENTATION_CONTEXT('2D SPACE',''
  ) );
#207 = ORIENTED_EDGE('',*,*,#158,.F.);
#208 = ADVANCED_FACE('',(#209),#196,.T.);
#209 = FACE_BOUND('',#210,.T.);
#210 = EDGE_LOOP('',(#211));
#211 = ORIENTED_EDGE('',*,*,#181,.T.);
#212 = ( GEOMETRIC_REPRESENTATION_CONTEXT(3) 
GLOBAL_UNCERTAINTY_ASSIGNED_CONTEXT((#216)) GLOBAL_UNIT_ASSIGNED_CONTEXT
((#213,#214,#215)) REPRESENTATION_CONTEXT('Context #1',
  '3D Context with UNIT and UNCERTAINTY') );
#213 = ( LENGTH_UNIT() NAMED_UNIT(*) SI_UNIT(.MILLI.,.METRE.) );
#214 = ( NAMED_UNIT(*) PLANE_ANGLE_UNIT() SI_UNIT($,.RADIAN.) );
#215 = ( NAMED_UNIT(*) SI_UNIT($,.STERADIAN.) SOLID_ANGLE_UNIT() );
#216 = UNCERTAINTY_MEASURE_WITH_UNIT(LENGTH_MEASURE(1.E-07),#213,
  'distance_accuracy_value','confusion accuracy');
#217 = CONTEXT_DEPENDENT_SHAPE_REPRESENTATION(#218,#220);
#218 = ( REPRESENTATION_RELATIONSHIP('','',#36,#10) 
REPRESENTATION_RELATIONSHIP_WITH_TRANSFORMATION(#219) 
SHAPE_REPRESENTATION_RELATIONSHIP() );
#219 = ITEM_DEFINED_TRANSFORMATION('','',#11,#15);
#220 = PRODUCT_DEFINITION_SHAPE('Placement','Placement of an item',#221
  );
#221 = NEXT_ASSEMBLY_USAGE_OCCURRENCE('1','','',#5,#31,$);
#222 = PRODUCT_RELATED_PRODUCT_CATEGORY('part',$,(#33));
#223 = SHAPE_DEFINITION_REPRESENTATION(#224,#230);
#224 = PRODUCT_DEFINITION_SHAPE('','',#225);
#225 = PRODUCT_DEFINITION('design','',#226,#229);
#226 = PRODUCT_DEFINITION_FORMATION('','',#227);
#227 = PRODUCT('Open CASCADE STEP translator 7.8 1.2',
  'Open CASCADE STEP translator 7.8 1.2','',(#228));
#228 = PRODUCT_CONTEXT('',#2,'mechanical');
#229 = PRODUCT_DEFINITION_CONTEXT('part definition',#2,'design');
#230 = ADVANCED_BREP_SHAPE_REPRESENTATION('',(#11,#231),#504);
#231 = BREP_WITH_VOIDS('',#232,(#329));
#232 = CLOSED_SHELL('',(#233,#321,#325));
#233 = ADVANCED_FACE('',(#234),#247,.T.);
#234 = FACE_BOUND('',#235,.T.);
#235 = EDGE_LOOP('',(#236,#270,#293,#320));
#236 = ORIENTED_EDGE('',*,*,#237,.F.);
#237 = EDGE_CURVE('',#238,#238,#240,.T.);
#238 = VERTEX_POINT('',#239);
#239 = CARTESIAN_POINT('',(5.,2.20429143688E-16,0.9));
#240 = SURFACE_CURVE('',#241,(#246,#258),.PCURVE_S1.);
#241 = CIRCLE('',#242,0.9);
#242 = AXIS2_PLACEMENT_3D('',#243,#244,#245);
#243 = CARTESIAN_POINT('',(5.,0.,0.));
#244 = DIRECTION('',(1.,0.,0.));
#245 = DIRECTION('',(-0.,0.,1.));
#246 = PCURVE('',#247,#252);
#247 = CYLINDRICAL_SURFACE('',#248,0.9);
#248 = AXIS2_PLACEMENT_3D('',#249,#250,#251);
#249 = CARTESIAN_POINT('',(-5.,0.,0.));
#250 = DIRECTION('',(1.,0.,0.));
#251 = DIRECTION('',(-0.,0.,1.));
#252 = DEFINITIONAL_REPRESENTATION('',(#253),#257);
#253 = LINE('',#254,#255);
#254 = CARTESIAN_POINT('',(0.,10.));
#255 = VECTOR('',#256,1.);
#256 = DIRECTION('',(1.,0.));
#257 = ( GEOMETRIC_REPRESENTATION_CONTEXT(2) 
PARAMETRIC_REPRESENTATION_CONTEXT() REPRESENTATION_CONTEXT('2D SPACE',''
  ) );
#258 = PCURVE('',#259,#264);
#259 = PLANE('',#260);
#260 = AXIS2_PLACEMENT_3D('',#261,#262,#263);
#261 = CARTESIAN_POINT('',(5.,0.,0.));
#262 = DIRECTION('',(1.,0.,0.));
#263 = DIRECTION('',(-0.,0.,1.));
#264 = DEFINITIONAL_REPRESENTATION('',(#265),#269);
#265 = CIRCLE('',#266,0.9);
#266 = AXIS2_PLACEMENT_2D('',#267,#268);
#267 = CARTESIAN_POINT('',(0.,0.));
#268 = DIRECTION('',(1.,0.));
#269 = ( GEOMETRIC_REPRESENTATION_CONTEXT(2) 
PARAMETRIC_REPRESENTATION_CONTEXT() REPRESENTATION_CONTEXT('2D SPACE',''
  ) );
#270 = ORIENTED_EDGE('',*,*,#271,.F.);
#271 = EDGE_CURVE('',#272,#238,#274,.T.);
#272 = VERTEX_POINT('',#273);
#273 = CARTESIAN_POINT('',(-5.,2.20429143688E-16,0.9));
#274 = SEAM_CURVE('',#275,(#279,#286),.PCURVE_S1.);
#275 = LINE('',#276,#277);
#276 = CARTESIAN_POINT('',(-5.,2.20429143688E-16,0.9));
#277 = VECTOR('',#278,1.);
#278 = DIRECTION('',(1.,0.,0.));
#279 = PCURVE('',#247,#280);
#280 = DEFINITIONAL_REPRESENTATION('',(#281),#285);
#281 = LINE('',#282,#283);
#282 = CARTESIAN_POINT('',(6.28318530718,-0.));
#283 = VECTOR('',#284,1.);
#284 = DIRECTION('',(0.,1.));
#285 = ( GEOMETRIC_REPRESENTATION_CONTEXT(2) 
PARAMETRIC_REPRESENTATION_CONTEXT() REPRESENTATION_CONTEXT('2D SPACE',''
  ) );
#286 = PCURVE('',#247,#287);
#287 = DEFINITIONAL_REPRESENTATION('',(#288),#292);
#288 = LINE('',#289,#290);
#289 = CARTESIAN_POINT('',(0.,-0.));
#290 = VECTOR('',#291,1.);
#291 = DIRECTION('',(0.,1.));
#292 = ( GEOMETRIC_REPRESENTATION_CONTEXT(2) 
PARAMETRIC_REPRESENTATION_CONTEXT() REPRESENTATION_CONTEXT('2D SPACE',''
  ) );
#293 = ORIENTED_EDGE('',*,*,#294,.T.);
#294 = EDGE_CURVE('',#272,#272,#295,.T.);
#295 = SURFACE_CURVE('',#296,(#301,#308),.PCURVE_S1.);
#296 = CIRCLE('',#297,0.9);
#297 = AXIS2_PLACEMENT_3D('',#298,#299,#300);
#298 = CARTESIAN_POINT('',(-5.,0.,0.));
#299 = DIRECTION('',(1.,0.,0.));
#300 = DIRECTION('',(-0.,0.,1.));
#301 = PCURVE('',#247,#302);
#302 = DEFINITIONAL_REPRESENTATION('',(#303),#307);
#303 = LINE('',#304,#305);
#304 = CARTESIAN_POINT('',(0.,0.));
#305 = VECTOR('',#306,1.);
#306 = DIRECTION('',(1.,0.));
#307 = ( GEOMETRIC_REPRESENTATION_CONTEXT(2) 
PARAMETRIC_REPRESENTATION_CONTEXT() REPRESENTATION_CONTEXT('2D SPACE',''
  ) );
#308 = PCURVE('',#309,#314);
#309 = PLANE('',#310);
#310 = AXIS2_PLACEMENT_3D('',#311,#312,#313);
#311 = CARTESIAN_POINT('',(-5.,0.,0.));
#312 = DIRECTION('',(1.,0.,0.));
#313 = DIRECTION('',(-0.,0.,1.));
#314 = DEFINITIONAL_REPRESENTATION('',(#315),#319);
#315 = CIRCLE('',#316,0.9);
#316 = AXIS2_PLACEMENT_2D('',#317,#318);
#317 = CARTESIAN_POINT('',(0.,0.));
#318 = DIRECTION('',(1.,0.));
#319 = ( GEOMETRIC_REPRESENTATION_CONTEXT(2) 
PARAMETRIC_REPRESENTATION_CONTEXT() REPRESENTATION_CONTEXT('2D SPACE',''
  ) );
#320 = ORIENTED_EDGE('',*,*,#271,.T.);
#321 = ADVANCED_FACE('',(#322),#259,.T.);
#322 = FACE_BOUND('',#323,.T.);
#323 = EDGE_LOOP('',(#324));
#324 = ORIENTED_EDGE('',*,*,#237,.T.);
#325 = ADVANCED_FACE('',(#326),#309,.F.);
#326 = FACE_BOUND('',#327,.T.);
#327 = EDGE_LOOP('',(#328));
#328 = ORIENTED_EDGE('',*,*,#294,.F.);
#329 = ORIENTED_CLOSED_SHELL('',*,#330,.F.);
#330 = CLOSED_SHELL('',(#331,#445,#500));
#331 = ADVANCED_FACE('',(#332),#349,.T.);
#332 = FACE_BOUND('',#333,.T.);
#333 = EDGE_LOOP('',(#334,#417,#444));
#334 = ORIENTED_EDGE('',*,*,#335,.T.);
#335 = EDGE_CURVE('',#336,#338,#340,.T.);
#336 = VERTEX_POINT('',#337);
#337 = CARTESIAN_POINT('',(0.,0.,0.));
#338 = VERTEX_POINT('',#339);
#339 = CARTESIAN_POINT('',(0.26149477,0.4075,0.));
#340 = SEAM_CURVE('',#341,(#348,#388),.PCURVE_S1.);
#341 = B_SPLINE_CURVE_WITH_KNOTS('',5,(#342,#343,#344,#345,#346,#347),
  .UNSPECIFIED.,.F.,.F.,(6,6),(0.,1.),.PIECEWISE_BEZIER_KNOTS.);
#342 = CARTESIAN_POINT('',(0.,0.,0.));
#343 = CARTESIAN_POINT('',(0.,9.664525E-02,0.));
#344 = CARTESIAN_POINT('',(5.E-03,0.18497527,0.));
#345 = CARTESIAN_POINT('',(0.17271875,0.4075,0.));
#346 = CARTESIAN_POINT('',(0.25,0.4075,0.));
#347 = CARTESIAN_POINT('',(0.26149477,0.4075,0.));
#348 = PCURVE('',#349,#360);
#349 = SURFACE_OF_REVOLUTION('',#350,#357);
#350 = B_SPLINE_CURVE_WITH_KNOTS('',5,(#351,#352,#353,#354,#355,#356),
  .UNSPECIFIED.,.F.,.F.,(6,6),(0.,1.),.PIECEWISE_BEZIER_KNOTS.);
#351 = CARTESIAN_POINT('',(0.,0.,0.));
#352 = CARTESIAN_POINT('',(0.,9.664525E-02,0.));
#353 = CARTESIAN_POINT('',(5.E-03,0.18497527,0.));
#354 = CARTESIAN_POINT('',(0.17271875,0.4075,0.));
#355 = CARTESIAN_POINT('',(0.25,0.4075,0.));
#356 = CARTESIAN_POINT('',(0.26149477,0.4075,0.));
#357 = AXIS1_PLACEMENT('',#358,#359);
#358 = CARTESIAN_POINT('',(0.,0.,0.));
#359 = DIRECTION('',(1.,0.,0.));
#360 = DEFINITIONAL_REPRESENTATION('',(#361),#387);
#361 = B_SPLINE_CURVE_WITH_KNOTS('',3,(#362,#363,#364,#365,#366,#367,
    #368,#369,#370,#371,#372,#373,#374,#375,#376,#377,#378,#379,#380,
    #381,#382,#383,#384,#385,#386),.UNSPECIFIED.,.F.,.F.,(4,1,1,1,1,1,1,
    1,1,1,1,1,1,1,1,1,1,1,1,1,1,1,4),(0.,4.545454545455E-02,
    9.090909090909E-02,0.136363636364,0.181818181818,0.227272727273,
    0.272727272727,0.318181818182,0.363636363636,0.409090909091,
    0.454545454545,0.5,0.545454545455,0.590909090909,0.636363636364,
    0.681818181818,0.727272727273,0.772727272727,0.818181818182,
    0.863636363636,0.909090909091,0.954545454545,1.),
  .QUASI_UNIFORM_KNOTS.);
#362 = CARTESIAN_POINT('',(6.28318530718,0.));
#363 = CARTESIAN_POINT('',(6.28318530718,1.515151515152E-02));
#364 = CARTESIAN_POINT('',(6.28318530718,4.545454545455E-02));
#365 = CARTESIAN_POINT('',(6.28318530718,9.090909090909E-02));
#366 = CARTESIAN_POINT('',(6.28318530718,0.136363636364));
#367 = CARTESIAN_POINT('',(6.28318530718,0.181818181818));
#368 = CARTESIAN_POINT('',(6.28318530718,0.227272727273));
#369 = CARTESIAN_POINT('',(6.28318530718,0.272727272727));
#370 = CARTESIAN_POINT('',(6.28318530718,0.318181818182));
#371 = CARTESIAN_POINT('',(6.28318530718,0.363636363636));
#372 = CARTESIAN_POINT('',(6.28318530718,0.409090909091));
#373 = CARTESIAN_POINT('',(6.28318530718,0.454545454545));
#374 = CARTESIAN_POINT('',(6.28318530718,0.5));
#375 = CARTESIAN_POINT('',(6.28318530718,0.545454545455));
#376 = CARTESIAN_POINT('',(6.28318530718,0.590909090909));
#377 = CARTESIAN_POINT('',(6.28318530718,0.636363636364));
#378 = CARTESIAN_POINT('',(6.28318530718,0.681818181818));
#379 = CARTESIAN_POINT('',(6.28318530718,0.727272727273));
#380 = CARTESIAN_POINT('',(6.28318530718,0.772727272727));
#381 = CARTESIAN_POINT('',(6.28318530718,0.818181818182));
#382 = CARTESIAN_POINT('',(6.28318530718,0.863636363636));
#383 = CARTESIAN_POINT('',(6.28318530718,0.909090909091));
#384 = CARTESIAN_POINT('',(6.28318530718,0.954545454545));
#385 = CARTESIAN_POINT('',(6.28318530718,0.984848484848));
#386 = CARTESIAN_POINT('',(6.28318530718,1.));
#387 = ( GEOMETRIC_REPRESENTATION_CONTEXT(2) 
PARAMETRIC_REPRESENTATION_CONTEXT() REPRESENTATION_CONTEXT('2D SPACE',''
  ) );
#388 = PCURVE('',#349,#389);
#389 = DEFINITIONAL_REPRESENTATION('',(#390),#416);
#390 = B_SPLINE_CURVE_WITH_KNOTS('',3,(#391,#392,#393,#394,#395,#396,
    #397,#398,#399,#400,#401,#402,#403,#404,#405,#406,#407,#408,#409,
    #410,#411,#412,#413,#414,#415),.UNSPECIFIED.,.F.,.F.,(4,1,1,1,1,1,1,
    1,1,1,1,1,1,1,1,1,1,1,1,1,1,1,4),(0.,4.545454545455E-02,
    9.090909090909E-02,0.136363636364,0.181818181818,0.227272727273,
    0.272727272727,0.318181818182,0.363636363636,0.409090909091,
    0.454545454545,0.5,0.545454545455,0.590909090909,0.636363636364,
    0.681818181818,0.727272727273,0.772727272727,0.818181818182,
    0.863636363636,0.909090909091,0.954545454545,1.),
  .QUASI_UNIFORM_KNOTS.);
#391 = CARTESIAN_POINT('',(0.,0.));
#392 = CARTESIAN_POINT('',(0.,1.515151515152E-02));
#393 = CARTESIAN_POINT('',(0.,4.545454545455E-02));
#394 = CARTESIAN_POINT('',(0.,9.090909090909E-02));
#395 = CARTESIAN_POINT('',(0.,0.136363636364));
#396 = CARTESIAN_POINT('',(0.,0.181818181818));
#397 = CARTESIAN_POINT('',(0.,0.227272727273));
#398 = CARTESIAN_POINT('',(0.,0.272727272727));
#399 = CARTESIAN_POINT('',(0.,0.318181818182));
#400 = CARTESIAN_POINT('',(0.,0.363636363636));
#401 = CARTESIAN_POINT('',(0.,0.409090909091));
#402 = CARTESIAN_POINT('',(0.,0.454545454545));
#403 = CARTESIAN_POINT('',(0.,0.5));
#404 = CARTESIAN_POINT('',(0.,0.545454545455));
#405 = CARTESIAN_POINT('',(0.,0.590909090909));
#406 = CARTESIAN_POINT('',(0.,0.636363636364));
#407 = CARTESIAN_POINT('',(0.,0.681818181818));
#408 = CARTESIAN_POINT('',(0.,0.727272727273));
#409 = CARTESIAN_POINT('',(0.,0.772727272727));
#410 = CARTESIAN_POINT('',(0.,0.818181818182));
#411 = CARTESIAN_POINT('',(0.,0.863636363636));
#412 = CARTESIAN_POINT('',(0.,0.909090909091));
#413 = CARTESIAN_POINT('',(0.,0.954545454545));
#414 = CARTESIAN_POINT('',(0.,0.984848484848));
#415 = CARTESIAN_POINT('',(0.,1.));
#416 = ( GEOMETRIC_REPRESENTATION_CONTEXT(2) 
PARAMETRIC_REPRESENTATION_CONTEXT() REPRESENTATION_CONTEXT('2D SPACE',''
  ) );
#417 = ORIENTED_EDGE('',*,*,#418,.F.);
#418 = EDGE_CURVE('',#338,#338,#419,.T.);
#419 = SURFACE_CURVE('',#420,(#425,#432),.PCURVE_S1.);
#420 = CIRCLE('',#421,0.4075);
#421 = AXIS2_PLACEMENT_3D('',#422,#423,#424);
#422 = CARTESIAN_POINT('',(0.26149477,0.,0.));
#423 = DIRECTION('',(1.,0.,0.));
#424 = DIRECTION('',(-0.,1.,0.));
#425 = PCURVE('',#349,#426);
#426 = DEFINITIONAL_REPRESENTATION('',(#427),#431);
#427 = LINE('',#428,#429);
#428 = CARTESIAN_POINT('',(0.,1.));
#429 = VECTOR('',#430,1.);
#430 = DIRECTION('',(1.,0.));
#431 = ( GEOMETRIC_REPRESENTATION_CONTEXT(2) 
PARAMETRIC_REPRESENTATION_CONTEXT() REPRESENTATION_CONTEXT('2D SPACE',''
  ) );
#432 = PCURVE('',#433,#438);
#433 = CYLINDRICAL_SURFACE('',#434,0.4075);
#434 = AXIS2_PLACEMENT_3D('',#435,#436,#437);
#435 = CARTESIAN_POINT('',(0.26149477,0.,0.));
#436 = DIRECTION('',(1.,0.,0.));
#437 = DIRECTION('',(-0.,1.,0.));
#438 = DEFINITIONAL_REPRESENTATION('',(#439),#443);
#439 = LINE('',#440,#441);
#440 = CARTESIAN_POINT('',(0.,0.));
#441 = VECTOR('',#442,1.);
#442 = DIRECTION('',(1.,0.));
#443 = ( GEOMETRIC_REPRESENTATION_CONTEXT(2) 
PARAMETRIC_REPRESENTATION_CONTEXT() REPRESENTATION_CONTEXT('2D SPACE',''
  ) );
#444 = ORIENTED_EDGE('',*,*,#335,.F.);
#445 = ADVANCED_FACE('',(#446),#433,.T.);
#446 = FACE_BOUND('',#447,.T.);
#447 = EDGE_LOOP('',(#448,#449,#472,#499));
#448 = ORIENTED_EDGE('',*,*,#418,.T.);
#449 = ORIENTED_EDGE('',*,*,#450,.T.);
#450 = EDGE_CURVE('',#338,#451,#453,.T.);
#451 = VERTEX_POINT('',#452);
#452 = CARTESIAN_POINT('',(2.3,0.4075,0.));
#453 = SEAM_CURVE('',#454,(#458,#465),.PCURVE_S1.);
#454 = LINE('',#455,#456);
#455 = CARTESIAN_POINT('',(0.26149477,0.4075,0.));
#456 = VECTOR('',#457,1.);
#457 = DIRECTION('',(1.,0.,0.));
#458 = PCURVE('',#433,#459);
#459 = DEFINITIONAL_REPRESENTATION('',(#460),#464);
#460 = LINE('',#461,#462);
#461 = CARTESIAN_POINT('',(6.28318530718,0.));
#462 = VECTOR('',#463,1.);
#463 = DIRECTION('',(0.,1.));
#464 = ( GEOMETRIC_REPRESENTATION_CONTEXT(2) 
PARAMETRIC_REPRESENTATION_CONTEXT() REPRESENTATION_CONTEXT('2D SPACE',''
  ) );
#465 = PCURVE('',#433,#466);
#466 = DEFINITIONAL_REPRESENTATION('',(#467),#471);
#467 = LINE('',#468,#469);
#468 = CARTESIAN_POINT('',(0.,0.));
#469 = VECTOR('',#470,1.);
#470 = DIRECTION('',(0.,1.));
#471 = ( GEOMETRIC_REPRESENTATION_CONTEXT(2) 
PARAMETRIC_REPRESENTATION_CONTEXT() REPRESENTATION_CONTEXT('2D SPACE',''
  ) );
#472 = ORIENTED_EDGE('',*,*,#473,.F.);
#473 = EDGE_CURVE('',#451,#451,#474,.T.);
#474 = SURFACE_CURVE('',#475,(#480,#487),.PCURVE_S1.);
#475 = CIRCLE('',#476,0.4075);
#476 = AXIS2_PLACEMENT_3D('',#477,#478,#479);
#477 = CARTESIAN_POINT('',(2.3,0.,0.));
#478 = DIRECTION('',(1.,0.,0.));
#479 = DIRECTION('',(-0.,1.,0.));
#480 = PCURVE('',#433,#481);
#481 = DEFINITIONAL_REPRESENTATION('',(#482),#486);
#482 = LINE('',#483,#484);
#483 = CARTESIAN_POINT('',(0.,2.03850523));
#484 = VECTOR('',#485,1.);
#485 = DIRECTION('',(1.,0.));
#486 = ( GEOMETRIC_REPRESENTATION_CONTEXT(2) 
PARAMETRIC_REPRESENTATION_CONTEXT() REPRESENTATION_CONTEXT('2D SPACE',''
  ) );
#487 = PCURVE('',#488,#493);
#488 = PLANE('',#489);
#489 = AXIS2_PLACEMENT_3D('',#490,#491,#492);
#490 = CARTESIAN_POINT('',(2.3,0.,0.));
#491 = DIRECTION('',(1.,0.,0.));
#492 = DIRECTION('',(-0.,1.,0.));
#493 = DEFINITIONAL_REPRESENTATION('',(#494),#498);
#494 = CIRCLE('',#495,0.4075);
#495 = AXIS2_PLACEMENT_2D('',#496,#497);
#496 = CARTESIAN_POINT('',(0.,0.));
#497 = DIRECTION('',(1.,0.));
#498 = ( GEOMETRIC_REPRESENTATION_CONTEXT(2) 
PARAMETRIC_REPRESENTATION_CONTEXT() REPRESENTATION_CONTEXT('2D SPACE',''
  ) );
#499 = ORIENTED_EDGE('',*,*,#450,.F.);
#500 = ADVANCED_FACE('',(#501),#488,.T.);
#501 = FACE_BOUND('',#502,.T.);
#502 = EDGE_LOOP('',(#503));
#503 = ORIENTED_EDGE('',*,*,#473,.T.);
#504 = ( GEOMETRIC_REPRESENTATION_CONTEXT(3) 
GLOBAL_UNCERTAINTY_ASSIGNED_CONTEXT((#508)) GLOBAL_UNIT_ASSIGNED_CONTEXT
((#505,#506,#507)) REPRESENTATION_CONTEXT('Context #1',
  '3D Context with UNIT and UNCERTAINTY') );
#505 = ( LENGTH_UNIT() NAMED_UNIT(*) SI_UNIT(.MILLI.,.METRE.) );
#506 = ( NAMED_UNIT(*) PLANE_ANGLE_UNIT() SI_UNIT($,.RADIAN.) );
#507 = ( NAMED_UNIT(*) SI_UNIT($,.STERADIAN.) SOLID_ANGLE_UNIT() );
#508 = UNCERTAINTY_MEASURE_WITH_UNIT(LENGTH_MEASURE(1.E-07),#505,
  'distance_accuracy_value','confusion accuracy');
#509 = CONTEXT_DEPENDENT_SHAPE_REPRESENTATION(#510,#512);
#510 = ( REPRESENTATION_RELATIONSHIP('','',#230,#10) 
REPRESENTATION_RELATIONSHIP_WITH_TRANSFORMATION(#511) 
SHAPE_REPRESENTATION_RELATIONSHIP() );
#511 = ITEM_DEFINED_TRANSFORMATION('','',#11,#19);
#512 = PRODUCT_DEFINITION_SHAPE('Placement','Placement of an item',#513
  );
#513 = NEXT_ASSEMBLY_USAGE_OCCURRENCE('2','','',#5,#225,$);
#514 = PRODUCT_RELATED_PRODUCT_CATEGORY('part',$,(#227));
ENDSEC;
END-ISO-10303-21;
