DBRep_DrawableShape

CASCADE Topology V1, (c) Matra-Datavision
Locations 0
Curve2ds 15
1 0 10 1 0 
2 0 0 1 0 -0 1 0.90000000000000002
1 6.2831853071795862 -0 0 1 
1 0 -0 0 1 
1 0 0 1 0 
2 0 0 1 0 -0 1 0.90000000000000002
1 0 0 1 0 
7 0 0  3 25 23  6.2831853071795862 0  6.2831853071795862 0.015151515151515152  6.2831853071795862 0.04545454545454547  6.2831853071795862 0.090909090909090884  6.2831853071795862 0.13636363636363638  6.2831853071795862 0.1818181818181818  6.2831853071795862 0.22727272727272727  6.2831853071795862 0.27272727272727271  6.2831853071795862 0.31818181818181823  6.2831853071795862 0.3636363636363637  6.2831853071795862 0.40909090909090917  6.2831853071795862 0.45454545454545459  6.2831853071795862 0.5  6.2831853071795862 0.54545454545454541  6.2831853071795862 0.59090909090909083  6.2831853071795862 0.63636363636363635  6.2831853071795862 0.68181818181818199  6.2831853071795862 0.72727272727272707  6.2831853071795862 0.77272727272727282  6.2831853071795862 0.81818181818181801  6.2831853071795862 0.86363636363636354  6.2831853071795862 0.90909090909090928  6.2831853071795862 0.95454545454545447  6.2831853071795862 0.98484848484848486  6.2831853071795862 1 
 0 4 0.045454545454545456 1 0.090909090909090912 1 0.13636363636363635 1 0.18181818181818182 1 0.22727272727272729 1 0.27272727272727271 1 0.31818181818181818 1 0.36363636363636365 1 0.40909090909090912 1 0.45454545454545459 1 0.5 1 0.54545454545454541 1 0.59090909090909094 1 0.63636363636363635 1 0.68181818181818188 1 0.72727272727272729 1 0.77272727272727271 1 0.81818181818181823 1 0.86363636363636365 1 0.90909090909090917 1 0.95454545454545459 1 1 4
7 0 0  3 25 23  0 0  0 0.015151515151515152  0 0.04545454545454547  0 0.090909090909090884  0 0.13636363636363638  0 0.1818181818181818  0 0.22727272727272727  0 0.27272727272727271  0 0.31818181818181823  0 0.3636363636363637  0 0.40909090909090917  0 0.45454545454545459  0 0.5  0 0.54545454545454541  0 0.59090909090909083  0 0.63636363636363635  0 0.68181818181818199  0 0.72727272727272707  0 0.77272727272727282  0 0.81818181818181801  0 0.86363636363636354  0 0.90909090909090928  0 0.95454545454545447  0 0.98484848484848486  0 1 
 0 4 0.045454545454545456 1 0.090909090909090912 1 0.13636363636363635 1 0.18181818181818182 1 0.22727272727272729 1 0.27272727272727271 1 0.31818181818181818 1 0.36363636363636365 1 0.40909090909090912 1 0.45454545454545459 1 0.5 1 0.54545454545454541 1 0.59090909090909094 1 0.63636363636363635 1 0.68181818181818188 1 0.72727272727272729 1 0.77272727272727271 1 0.81818181818181823 1 0.86363636363636365 1 0.90909090909090917 1 0.95454545454545459 1 1 4
1 0 1 1 0 
1 0 0 1 0 
1 6.2831853071795862 0 0 1 
1 0 0 0 1 
1 0 2.0385052299999997 1 0 
2 0 0 1 0 -0 1 0.40749999999999997
Curves 7
2 5 0 0 1 0 0 -0 0 1 0 -1 0 0.90000000000000002
1 -5 2.2042914368802792e-16 0.90000000000000002 1 0 0 
2 -5 0 0 1 0 0 -0 0 1 0 -1 0 0.90000000000000002
7 0 0  5 6 2  0 0 0  0 0.096645250000000002 0  0.0050000000000000001 0.18497527 0  0.17271875 0.40749999999999997 0  0.25 0.40749999999999997 0  0.26149476999999999 0.40749999999999997 0 
 0 6 1 6
2 0.26149476999999999 0 0 1 0 0 -0 1 0 0 -0 1 0.40749999999999997
1 0.26149476999999999 0.40749999999999997 0 1 0 0 
2 2.2999999999999998 0 0 1 0 0 -0 1 0 0 -0 1 0.40749999999999997
Polygon3D 0
PolygonOnTriangulations 0
Surfaces 6
2 -5 0 0 1 0 0 -0 0 1 0 -1 0 0.90000000000000002
1 5 0 0 1 0 0 -0 0 1 0 -1 0 
1 -5 0 0 1 0 0 -0 0 1 0 -1 0 
7 0 0 0 1 0 0 
7 0 0  5 6 2  0 0 0  0 0.096645250000000002 0  0.0050000000000000001 0.18497527 0  0.17271875 0.40749999999999997 0  0.25 0.40749999999999997 0  0.26149476999999999 0.40749999999999997 0 
 0 6 1 6
2 0.26149476999999999 0 0 1 0 0 -0 1 0 0 -0 1 0.40749999999999997
1 2.2999999999999998 0 0 1 0 0 -0 1 0 0 -0 1 
Triangulations 0

TShapes 29
Ve
1e-07
5 2.20429143688028e-16 0.9
0 0

0101101
*
Ed
 1e-07 1 1 0
1  1 0 0 6.28318530717959
2  1 1 0 0 6.28318530717959
2  2 2 0 0 6.28318530717959
0

0101000
+29 0 -29 0 *
Ve
1e-07
-5 2.20429143688028e-16 0.9
0 0

0101101
*
Ed
 1e-07 1 1 0
1  2 0 0 10
3  3 4CN 1 0 0 10
0

0101000
-29 0 +27 0 *
Ed
 1e-07 1 1 0
1  3 0 0 6.28318530717959
2  5 1 0 0 6.28318530717959
2  6 3 0 0 6.28318530717959
0

0101000
+27 0 -27 0 *
Wi

0101100
-28 0 +26 0 +25 0 -26 0 *
Fa
0  1e-07 1 0

0101000
+24 0 *
Wi

0101100
+28 0 *
Fa
0  1e-07 2 0

0101000
+22 0 *
Wi

0101100
-25 0 *
Fa
0  1e-07 3 0

0101000
-20 0 *
Sh

0101100
+23 0 +21 0 -19 0 *
Ve
1e-07
0 0 0
0 0

0101101
*
Ed
 1e-07 1 1 1
2  7 4 0 0 6.28318530717959
0

0101000
+17 0 -17 0 *
Ve
1e-07
0.26149477 0.4075 0
0 0

0101101
*
Ed
 1e-07 1 1 0
1  4 0 0 1
3  8 9C2 4 0 0 1
0

0101000
+17 0 -15 0 *
Ed
 1e-07 1 1 0
1  5 0 0 6.28318530717959
2  10 4 0 0 6.28318530717959
2  11 5 0 0 6.28318530717959
4 G2 4 0 5 0
0

0101000
+15 0 -15 0 *
Wi

0101100
+16 0 +14 0 -13 0 -14 0 *
Fa
0  1e-07 4 0

0101000
+12 0 *
Ve
1e-07
2.3 0.4075 0
0 0

0101101
*
Ed
 1e-07 1 1 0
1  6 0 0 2.03850523
3  12 13CN 5 0 0 2.03850523
0

0101000
+15 0 -10 0 *
Ed
 1e-07 1 1 0
1  7 0 0 6.28318530717959
2  14 5 0 0 6.28318530717959
4 C0 5 0 6 0
2  15 6 0 0 6.28318530717959
0

0101000
+10 0 -10 0 *
Wi

0101100
+13 0 +9 0 -8 0 -9 0 *
Fa
0  1e-07 5 0

0101000
+7 0 *
Wi

0101100
+8 0 *
Fa
0  1e-07 6 0

0101000
+5 0 *
Sh

0101100
-11 0 -6 0 -4 0 *
So

0100000
+18 0 +3 0 *
Co

1100000
+2 0 *

+1 0 