DBRep_DrawableShape

CASCADE Topology V1, (c) Matra-Datavision
Locations 0
Curve2ds 9
1 0 0 1 0 
1 0 1 1 0 
1 0 0 1 0 
1 6.2831853071795862 0 0 1 
1 0 0 0 1 
1 0 2.0385052299999997 1 0 
2 0 0 1 0 -0 1 0.40749999999999997
1 6.2831853071795862 0 0 1 
1 0 0 0 1 
Curves 4
2 0.26149476999999999 0 0 1 0 0 -0 1 0 0 -0 1 0.40749999999999997
6 0 5 0 0 0  0 0.096645250000000002 0  0.0050000000000000001 0.18497527 0  0.17271875 0.40749999999999997 0  0.25 0.40749999999999997 0  0.26149476999999999 0.40749999999999997 0  
2 2.2999999999999998 0 0 1 0 0 -0 1 0 0 -0 1 0.40749999999999997
1 0.26149476999999999 0.40749999999999997 0 1 0 0 
Polygon3D 0
PolygonOnTriangulations 0
Surfaces 3
7 0 0 0 1 0 0 
8 0 1
6 0 5 0 0 0  0 0.096645250000000002 0  0.0050000000000000001 0.18497527 0  0.17271875 0.40749999999999997 0  0.25 0.40749999999999997 0  0.26149476999999999 0.40749999999999997 0  
2 0.26149476999999999 0 0 1 0 0 -0 1 0 0 -0 1 0.40749999999999997
1 2.2999999999999998 0 0 1 0 0 -0 1 0 0 -0 1 
Triangulations 0

TShapes 16
Ve
1e-07
0 0 0
0 0

0101101
*
Ed
 1e-07 1 1 1
2  1 1 0 0 6.28318530717959
0

0101000
+16 0 -16 0 *
Ve
1.00000000039252e-07
0.26149477 0.4075 0
0 0

0101101
*
Ed
 1.00000000039252e-07 1 1 0
1  1 0 0 6.28318530717959
2  2 1 0 0 6.28318530717959
2  3 2 0 0 6.28318530717959
4 G1 1 0 2 0
0

0101000
+14 0 -14 0 *
Ed
 1e-07 1 1 0
1  2 0 0 1
3  4 5CN 1 0 0 1
0

0101000
+16 0 -14 0 *
Wi

0101100
+15 0 -13 0 -12 0 +12 0 *
Fa
0  1e-07 1 0

0101000
+11 0 *
Ve
1e-07
2.3 0.4075 0
0 0

0101101
*
Ed
 1e-07 1 1 0
1  3 0 0 6.28318530717959
2  6 2 0 0 6.28318530717959
2  7 3 0 0 6.28318530717959
0

0101000
+9 0 -9 0 *
Ed
 1e-07 1 1 0
1  4 0 0 2.03850523
3  8 9CN 2 0 0 2.03850523
0

0101000
+14 0 -9 0 *
Wi

0101100
+13 0 -8 0 -7 0 +7 0 *
Fa
0  1e-07 2 0

0101000
+6 0 *
Wi

0101100
+8 0 *
Fa
0  1e-07 3 0

0101000
+4 0 *
Sh

0101100
+10 0 +5 0 +3 0 *
So

0100000
+2 0 *

+1 0 